<svg height="36" viewBox="0 0 148 36" width="148" xmlns="http://www.w3.org/2000/svg"><path d="m91.7421 7.44488h3.1224v2.67792h.0806c.8259-.97201 1.8332-1.76546 2.9814-2.32087 1.1684-.55541 2.4375-.83312 3.7265-.83312 1.37-.01984 2.74.23803 4.009.73394 1.169.45623 2.216 1.15049 3.102 2.02328.867.89267 1.552 1.92407 1.995 3.07457.967 2.4796.967 5.2169 0 7.7163-.443 1.1307-1.128 2.182-1.974 3.0746-.847.8728-1.854 1.5472-2.982 2.0233-1.168.4959-2.417.7339-3.666.7339-1.551.0397-3.0622-.3372-4.4119-1.091-1.2691-.7141-2.1958-1.6067-2.78-2.658h-.0806v12.2389h-3.1224zm3.1224 9.20392c-.0201.9125.141 1.825.4633 2.6978.5842 1.6265 1.8332 2.9357 3.4448 3.6101 1.7524.7141 3.7264.7141 5.4794 0 1.591-.6942 2.84-2.0034 3.425-3.6101.604-1.7456.604-3.6499 0-5.3955-.585-1.6265-1.834-2.9357-3.425-3.6101-1.753-.71415-3.727-.71415-5.4794 0-1.6116.6744-2.8404 2.0034-3.4448 3.6101-.3223.853-.4633 1.7654-.4633 2.6977z"/><path d="m138.378 30.7578c-.325.794-.649 1.5086-.974 2.1438-.325.6153-.73 1.1711-1.217 1.6475-.487.4565-1.055.8337-1.684 1.0719-.771.258-1.582.397-2.393.3771-.467 0-.954-.0198-1.42-.0794-.487-.0595-.954-.1786-1.38-.397l.406-2.6797c.325.139.67.2184 1.014.2581.406.0397.812.0595 1.217.0595 1.015 0 1.765-.2779 2.252-.8337.548-.655.974-1.4093 1.258-2.2033l1.257-3.4538-7.809-18.53965h3.651l5.842 14.45055h.081l5.599-14.45055h3.407z"/><path d="m133.379 23.5137h-4.171c-.182 0-.323-.1416-.323-.3237v-8.3134c0-2.67-.604-4.6725-1.833-5.96704-1.229-1.31477-3.224-1.94182-5.984-1.94182h-11.908c.484.36409.947.74841 1.37 1.19341.464.48546.907 1.01137 1.269 1.57773h10.276c.927.1416 1.793.52592 2.499 1.13272.806.708 1.209 1.7193 1.209 3.0948v.5664h-1.209c-1.149 0-2.398.0606-3.768.1618-1.31.1011-2.599.3641-3.828.8091-1.129.4045-2.156 1.072-2.982 1.962-.806.89-1.209 2.1037-1.209 3.6612-.02.8293.181 1.6586.564 2.407.363.6877.866 1.2743 1.491 1.7396.665.4854 1.41.8495 2.196 1.072.887.2427 1.793.3641 2.7.3641 1.451 0 2.66-.3034 3.687-.9305.947-.5461 1.753-1.3147 2.358-2.225.181 1.78 1.672 3.1353 3.445 3.1353h5.48zm-9.047-1.1732c-.464.5259-1.048.9305-1.693 1.2136-.745.3237-1.551.4855-2.377.4653-1.169 0-2.156-.2428-2.942-.7484-.786-.4855-1.189-1.335-1.168-2.5082 0-1.2744.584-2.2048 1.752-2.7712 1.169-.5663 2.761-.8495 4.756-.8495h3.123v1.1934c-.021.7484-.162 1.4766-.403 2.1845-.222.6878-.585 1.2946-1.048 1.8205z"/><g fill="#c4ad6c"><path d="m6.40462 20.7215c.31187.6024.76928 1.1244 1.33064 1.5059.58215.4016 1.24745.7028 1.95435.8634.74849.1807 1.53859.2811 2.32859.2811.5822 0 1.1643-.0401 1.7465-.1205.6029-.0803 1.1851-.261 1.7464-.5019.5198-.241.998-.5823 1.3514-1.0241.3743-.4819.5614-1.0641.5406-1.6665.0208-.6626-.2287-1.2851-.7069-1.7469-.5406-.4819-1.1851-.8634-1.8712-1.1244-.8524-.3213-1.7256-.5823-2.6197-.7831-.9771-.2209-1.9751-.4819-2.97308-.7429-1.01877-.241-2.03753-.5622-3.01471-.9236-.9356-.3414-1.82962-.8233-2.64047-1.4056-1.70487-1.2449-2.661256-3.1925-2.598882-5.26066-.041583-1.24489.291072-2.46971.914802-3.57405.60294-1.00395 1.4138-1.86735 2.37018-2.52995.99798-.68269 2.14149-1.18466 3.32658-1.485845 1.20588-.321263 2.45338-.481895 3.70078-.481895 1.393 0 2.786.160632 4.1582.461817 1.2683.281105 2.4742.803163 3.5345 1.505923 1.0188.68268 1.8712 1.60632 2.4534 2.6705.6029 1.08427.894 2.3894.894 3.93548h-5.8839c-.0208-.68269-.2079-1.36537-.5198-1.98782-.2703-.50197-.6861-.92363-1.185-1.22482-.5198-.30118-1.0812-.52205-1.6841-.64252-.6861-.12048-1.3722-.20079-2.0791-.18071-.499 0-.9772.06023-1.4762.14055-.4782.10039-.91481.2811-1.33064.52205-.39503.24095-.72769.56221-.97718.92363-.27028.42166-.41581.92364-.39502 1.42561-.02079.44174.08316.88347.31186 1.26497.20792.32127.60294.62245 1.20588.90356.81086.34138 1.66329.62248 2.5157.82328 1.0604.261 2.4742.6224 4.1998 1.0441.5198.1004 1.2267.2811 2.1415.5421.9772.2811 1.892.7028 2.7236 1.2449.9356.6024 1.7465 1.3854 2.3494 2.3091.6653.9638.9772 2.1886.9772 3.6744.0208 1.1646-.2495 2.3292-.7277 3.3934-.499 1.0641-1.2474 1.9878-2.183 2.7106-1.0604.8032-2.2871 1.4056-3.5969 1.767-1.6217.4417-3.285.6626-4.9691.6425-1.4969 0-2.97309-.1807-4.42846-.5421-1.37222-.3213-2.64047-.9036-3.78398-1.7067-1.10193-.763-1.99595-1.7871-2.598887-2.9517-.644523-1.1846-.9563895-2.6102-.93559842-4.2567h5.86308542c.02079.8232.18712 1.6063.54056 2.3091z"/><path d="m24.9833 13.6253c.0792-1.2819.3764-2.3363.9309-3.184.5348-.82707 1.2281-1.53004 2.06-2.04693.8715-.53757 1.8222-.88906 2.8126-1.09581 1.0299-.20676 2.0995-.33082 3.1493-.33082.9705 0 1.941.06203 2.9116.20676.9309.12405 1.842.41351 2.6937.82703.7923.39284 1.4657.97176 1.9807 1.71608.515.72369.7725 1.69539.7725 2.89459v10.3379c0 .8683.0396 1.716.1584 2.5844.0991.8271.2773 1.4267.515 1.8402h-5.3082c-.0991-.3102-.1783-.6203-.2377-.9511s-.0991-.641-.1387-.9718c-.8121.8891-1.8222 1.53-2.9512 1.8815s-2.2976.5376-3.4662.5376c-.8517 0-1.7232-.1034-2.5353-.3515-.7527-.2068-1.4459-.5789-2.0599-1.0751-.5943-.4963-1.0696-1.1165-1.3865-1.8402-.3566-.827-.515-1.7367-.4952-2.6465 0-1.1371.1981-2.0675.5744-2.7912.3565-.703.8517-1.3026 1.4657-1.7574.6338-.4549 1.3271-.7857 2.06-.9718.7724-.2067 1.5449-.3928 2.3372-.5169.7922-.124 1.5647-.2274 2.3174-.3101.6734-.062 1.3667-.1861 2.0203-.3515.515-.1241.9903-.3515 1.4063-.6823.3565-.3101.5348-.8063.4753-1.2819.0198-.4755-.0792-.9717-.2773-1.4059-.1782-.3308-.4357-.6203-.7328-.8064-.3367-.2067-.6933-.3308-1.0696-.3928-.4357-.0621-.8715-.1034-1.3072-.1034-1.03 0-1.8421.2274-2.4363.6823s-.9309 1.2199-1.03 2.3157zm12.0822 4.0318c-.2376.2274-.5149.3721-.8318.4755-.3566.1241-.7131.2275-1.0696.2895-.3764.0827-.7725.1447-1.1884.1861-.416.0413-.8319.124-1.2479.186-.3961.0828-.7724.1861-1.1686.3102-.3565.124-.6932.2894-.9903.5169-.2773.2274-.515.4962-.6735.827-.1782.3928-.2773.827-.2575 1.2612-.0198.4342.0793.8477.2575 1.2406.1585.3308.3962.5996.6933.7856.3169.2068.6734.3515 1.0299.4136.3962.0827.8121.124 1.2083.124 1.0299 0 1.8222-.1861 2.3966-.5376.515-.3101.9507-.7443 1.2478-1.2819.2575-.4755.4358-.9924.4952-1.53.0594-.4135.0792-.827.099-1.2198z"/><path d="m44.1268 10.9129v-3.55722h3.2553v-1.48721c0-1.72839.5563-3.13521 1.6483-4.22048 1.092-1.085261 2.7609-1.64799 4.986-1.64799.4739 0 .9684.0200966 1.4629.0602916.4945.0401954.9683.0602924 1.4216.1004874v3.959211c-.6593-.08039-1.3186-.12059-1.9985-.12059-.7417 0-1.2774.16078-1.5865.50244-.309.34166-.4739.90439-.4739 1.70829v1.16565h3.7499v3.55722h-3.7499v15.7766h-5.4599v-15.7766h-3.2553z"/><path d="m62.7747 7.48674v3.57306h.075c.2251-.5988.5441-1.15772.938-1.65676.394-.49904.8443-.93819 1.3508-1.29749.5065-.35931 1.0694-.63877 1.6322-.83839.5816-.19961 1.2007-.29942 1.8198-.29942.3752 0 .7316.05989 1.0881.17966v4.9105c-.2251-.0399-.5065-.0998-.8442-.1198-.319-.0399-.6191-.0598-.9381-.0598-.7879-.02-1.5759.1397-2.3075.499-.6004.2994-1.1257.7585-1.5197 1.3174-.3939.5789-.6753 1.2377-.8254 1.9563-.1689.7984-.2439 1.5969-.2439 2.4153v8.6433h-4.9341v-19.2029h4.709z"/><path d="m71.4541 13.6253c.0791-1.2819.3759-2.3363.9299-3.184.5342-.82707 1.2267-1.53004 2.0577-2.04693.8706-.51689 1.8203-.88906 2.8096-1.09581 1.0289-.20676 2.0973-.33082 3.146-.33082.9695 0 1.939.06203 2.9085.20676.9299.12405 1.8401.41351 2.6909.82703.7914.39284 1.4641.97176 1.9785 1.71608.5145.72369.7717 1.69539.7717 2.89459v10.3379c0 .8683.0396 1.716.1583 2.5844.0989.8271.277 1.4267.5144 1.8402h-5.3224c-.0989-.3102-.178-.6203-.2374-.9511s-.0989-.641-.1385-.9718c-.8112.8891-1.8203 1.53-2.9481 1.8815s-2.2952.5376-3.4625.5376c-.8508 0-1.7214-.1034-2.5326-.3515-.7519-.2068-1.4444-.5789-2.0577-1.0751-.5936-.4963-1.0685-1.1165-1.3851-1.8402-.3561-.827-.5144-1.7367-.4946-2.6465 0-1.1371.1979-2.0675.5738-2.7912.3561-.703.8508-1.3026 1.4641-1.7574.6332-.4549 1.3257-.7857 2.0578-.9718.7716-.2067 1.5433-.3928 2.3347-.5169.7914-.124 1.5631-.2274 2.3149-.3101.6728-.062 1.3653-.1861 2.0182-.3515.5144-.1241.9893-.3515 1.4048-.6823.3561-.3101.5342-.8063.4749-1.2819.0198-.4755-.0792-.9717-.277-1.4059-.1781-.3308-.4353-.6203-.7321-.8064-.3364-.2067-.6925-.3308-1.0684-.3928-.4353-.0621-.8706-.1034-1.3059-.1034-1.0289 0-1.8401.2274-2.4337.6823s-.9299 1.2199-1.0288 2.3157zm12.0693 4.0318c-.2374.2274-.5144.3721-.831.4755-.3561.1241-.7123.2275-1.0684.2895-.3759.0827-.7717.1447-1.1872.1861-.4155.0413-.831.124-1.2465.186-.3957.0828-.7716.1861-1.1475.3102-.3562.124-.6926.2894-.9893.5169-.277.2274-.5145.4962-.6728.827-.178.3928-.277.827-.2572 1.2612-.0198.4342.0792.8477.2572 1.2406.1583.3308.3958.5996.6925.7856.3166.2068.6728.3515 1.0289.4136.3957.0827.8112.124 1.207.124 1.0288 0 1.8202-.1861 2.394-.5376.5145-.3101.9497-.7443 1.2465-1.2819.2572-.4755.4353-.9924.4947-1.53.0593-.4135.0791-.827.0989-1.2198z"/></g></svg>