<svg width="82" height="50" viewBox="0 0 82 50" fill="none" xmlns="http://www.w3.org/2000/svg">
<path fill-rule="evenodd" clip-rule="evenodd" d="M19.314 18.231H30.5052C40.6135 18.231 46.9312 24.3681 46.9312 33.9348C46.9312 44.5846 39.8915 49.8193 28.5197 49.8193H19.314V18.231ZM29.7832 25.4511C29.4222 25.4511 28.8807 25.4511 28.1587 25.4511V42.4186C33.7543 42.4186 38.2669 40.2525 38.2669 33.7543C38.2669 28.1587 34.6569 25.4511 29.7832 25.4511Z" fill="#21295E"/>
<path fill-rule="evenodd" clip-rule="evenodd" d="M81.227 27.4369V19.1337C79.0609 18.2312 76.8949 17.6897 74.1873 17.6897C64.9816 17.6897 57.4004 24.7294 57.4004 33.9351C57.4004 43.1408 64.8011 50 74.0068 50C77.2559 50 79.6024 49.278 81.227 48.0145V39.7113C78.6999 41.3358 76.8949 42.0578 74.3678 42.0578C69.6747 42.0578 66.0646 38.6282 66.0646 33.5741C66.0646 28.7005 69.6747 25.0904 74.3678 25.0904C77.0754 25.0904 78.8804 25.9929 81.227 27.4369Z" fill="#21295E"/>
<path fill-rule="evenodd" clip-rule="evenodd" d="M0 11.9133V13.3573H6.13715V11.9133C4.33211 11.9133 4.1516 11.5523 4.1516 10.4693V2.88807L7.7617 13.3573H9.38624L13.3573 2.88807V10.2888C13.3573 11.9133 13.3573 11.9133 11.1913 11.9133V13.3573H18.4115V11.9133C16.2454 11.9133 16.0649 11.5523 16.0649 10.4693V3.24908C16.0649 1.98555 16.2454 1.62454 18.231 1.62454V0H12.0938L9.02523 8.48371L6.13715 0H0V1.62454C1.80505 1.62454 1.98555 1.62454 1.98555 3.06858V10.1083C1.98555 11.5523 1.98555 11.9133 0 11.9133Z" fill="#21295E"/>
<path fill-rule="evenodd" clip-rule="evenodd" d="M29.9636 11.9132V13.3572H35.7398V11.9132C34.2957 11.9132 34.2957 11.7327 34.2957 9.7471V8.12256C34.2957 6.49802 35.0178 5.23449 36.4618 5.23449C37.5448 5.23449 37.9058 5.95651 37.9058 7.03953V10.4691C37.9058 11.5521 37.9058 11.9132 36.4618 11.9132V13.3572H41.5159V11.9132C40.2524 11.9132 40.2524 11.7327 40.2524 10.6496V8.30307C40.2524 6.67852 40.9744 5.23449 42.4184 5.23449C43.5015 5.23449 43.8625 5.95651 43.8625 7.22004V10.8301C43.8625 11.7327 43.8625 11.9132 42.4184 11.9132V13.3572H48.0141V11.9132C46.209 11.9132 46.209 11.9132 46.209 11.0106V7.03953C46.209 4.87348 45.6675 3.60995 43.5015 3.60995C42.2379 3.60995 41.3354 4.15146 40.2524 5.23449C39.7109 4.15146 38.8083 3.42944 37.5448 3.42944C36.1008 3.42944 35.1983 4.15146 34.2957 5.23449V3.79045H29.9636V5.23449C31.7687 5.23449 31.9492 5.23449 31.9492 6.67853V9.92761C31.7687 11.9132 31.7687 11.9132 29.9636 11.9132Z" fill="#21295E"/>
<path fill-rule="evenodd" clip-rule="evenodd" d="M0.36084 18.231V49.8193H9.02506V37.7254H17.5088V30.3248H9.02506V25.4511H18.0503V18.231H0.36084Z" fill="#21295E"/>
<path fill-rule="evenodd" clip-rule="evenodd" d="M48.7363 0H52.7074V4.87362C53.7905 3.9711 54.5125 3.61009 55.5955 3.61009C57.9421 3.61009 59.5666 5.77615 59.5666 8.66422C59.5666 11.7328 57.9421 13.7183 55.415 13.7183C54.1515 13.7183 53.4294 13.3573 52.5269 12.4548L51.8049 13.5378H50.5414V3.06858C50.5414 1.44404 50.3609 1.26353 48.9168 1.26353V0H48.7363ZM56.859 8.66422C56.859 6.49816 56.137 5.41514 54.8735 5.41514C53.4294 5.41514 52.7074 6.67867 52.7074 8.84472C52.7074 10.8303 53.4294 12.0938 54.693 12.0938C55.9565 12.0938 56.859 11.0108 56.859 8.66422Z" fill="#21295E"/>
<path fill-rule="evenodd" clip-rule="evenodd" d="M71.8409 11.9133V13.3574H77.9781V11.9133C76.173 11.9133 75.9925 11.9133 75.9925 10.6498V8.48373C75.9925 6.49818 76.7145 4.87364 78.3391 4.87364C78.5196 4.87364 78.5196 4.87364 78.8806 5.05414C78.3391 5.41515 77.9781 5.77616 77.9781 6.31768C77.9781 7.03969 78.5196 7.58121 79.2416 7.58121C80.1441 7.58121 80.8661 6.85919 80.8661 5.77616C80.8661 4.51263 79.9636 3.61011 78.7001 3.61011C77.617 3.61011 76.895 4.15162 75.9925 5.23465V3.79061H71.6604V5.23465C73.1044 5.23465 73.6459 5.23465 73.6459 6.49818V10.4693C73.6459 11.7328 73.6459 11.9133 71.8409 11.9133Z" fill="#21295E"/>
<path fill-rule="evenodd" clip-rule="evenodd" d="M63.8985 8.84474C63.8985 10.6498 64.801 11.9133 66.245 11.9133C67.6891 11.9133 68.2306 11.1913 68.4111 9.92777H70.2161C69.8551 12.2743 68.2306 13.7184 66.0645 13.7184C63.357 13.7184 61.1909 12.0938 61.1909 8.84474C61.3714 5.77616 63.1765 3.61011 65.884 3.61011C68.5916 3.61011 70.3966 5.77616 70.3966 8.84474H63.8985ZM65.884 5.05414C64.801 5.05414 64.079 5.77616 64.079 7.2202H67.6891C67.6891 5.95667 67.1476 5.05414 65.884 5.05414Z" fill="#21295E"/>
<path fill-rule="evenodd" clip-rule="evenodd" d="M22.0215 8.8449C22.0215 10.6499 22.9241 11.9135 24.5486 11.9135C25.9926 11.9135 26.5341 11.1915 26.7147 9.92793H28.3392C27.9782 12.2745 26.5341 13.7185 24.1876 13.7185C21.48 13.7185 19.314 12.094 19.314 8.8449C19.314 5.95683 21.2995 3.79077 24.0071 3.79077C26.7147 3.79077 28.3392 5.77632 28.3392 9.0254H22.0215V8.8449ZM24.0071 5.0543C22.9241 5.0543 22.202 5.77632 22.202 7.22036H25.8121C25.8121 5.77632 25.2706 5.0543 24.0071 5.0543Z" fill="#21295E"/>
<path fill-rule="evenodd" clip-rule="evenodd" d="M47.8337 49.8193H56.498V18.231H47.8337V49.8193Z" fill="#21295E"/>
</svg>
