<svg fill="none" height="50" viewBox="0 0 90 50" width="90" xmlns="http://www.w3.org/2000/svg"><g fill="#21295e"><path d="m83.8074 48.1258c1.6651-.6924 3.1374-1.7214 4.424-3.1063l-4.1212-4.6531c-.6399.6601-1.4105 1.2296-2.3118 1.702s-1.9333.7119-3.0892.7119c-1.9264 0-3.4745-.7054-4.651-2.1098-1.1765-1.4043-1.7613-3.4364-1.7613-6.0768 0-1.262.172-2.401.5298-3.4041.3509-1.0031.8256-1.8509 1.4173-2.5433.5917-.6925 1.2797-1.2231 2.064-1.592.7775-.3754 1.61-.5566 2.4975-.5566 1.0114 0 1.899.1942 2.6833.5825.7775.3883 1.5343.8866 2.2705 1.4884l4.1212-4.7437c-1.0733-1.0031-2.3805-1.8767-3.9423-2.608s-3.33-1.1002-5.3184-1.1002c-1.8921 0-3.7016.3301-5.4285.9902s-3.2543 1.6179-4.5822 2.8669-2.3943 2.7892-3.1855 4.6142c-.7981 1.825-1.1903 3.9154-1.1903 6.271 0 2.3816.3853 4.4719 1.149 6.271.7637 1.7927 1.7957 3.2876 3.0892 4.4849 1.3004 1.1907 2.814 2.0838 4.534 2.6727 1.727.5889 3.5365.8866 5.4285.8866 1.9127-.0129 3.7084-.3559 5.3734-1.0484zm-23.5233.5178v-28.0156h-7.8847v28.0091h7.8847zm-28.0437-22.0682h.4541c1.0665 0 2.0778.11 3.0204.3236.9495.2135 1.7614.6083 2.4494 1.1843.688.5759 1.2315 1.3784 1.6237 2.4139.3991 1.0354.5986 2.3686.5986 4.0059s-.1995 2.9899-.5986 4.0512c-.399 1.0614-.9426 1.8962-1.6237 2.4981-.6812.6018-1.5068 1.029-2.4494 1.2684-.9426.2459-1.9539.3689-3.0204.3689h-.4541zm1.3761 22.0682c2.1397 0 4.1143-.2718 5.9376-.8219 1.8163-.5436 3.3919-1.3914 4.7198-2.5434 1.3279-1.1519 2.3599-2.6145 3.0892-4.4007.7362-1.7797 1.1008-3.9088 1.1008-6.3745s-.3715-4.5819-1.1215-6.3357c-.7499-1.7538-1.7957-3.1905-3.1373-4.3101-1.3417-1.1196-2.9585-1.9415-4.8368-2.4527-1.8783-.5178-3.9492-.7766-6.2059-.7766h-8.7998v28.0091h9.2539zm-24.56229 0v-10.2575h9.89369v-6.2063h-9.89369v-5.3456h11.54499v-6.2062h-19.42281v28.0091h7.87782z"/><path d="m84.0135 15.3807v-6.53479c.3441-.81021.7638-1.38134 1.2385-1.7134.4817-.32541.9427-.49143 1.3762-.49143.2408 0 .4404.01328.6055.03984l.5436.13282.4541-2.17827c-.3165-.1461-.7362-.21915-1.2661-.21915-.5917 0-1.1628.18594-1.7201.55784-.5574.37191-1.0321.90319-1.4243 1.6005h-.0757l-.1789-1.8927h-2.1399v10.69874zm-13.1353-8.3478c.4954-.45159 1.0734-.67739 1.7408-.67739.7638 0 1.3349.23908 1.7064.70395.3647.47152.5505 1.12234.5505 1.95248h-4.9197c.117-.86334.4266-1.52745.922-1.97904zm4.0596 8.2814c.6468-.2191 1.2317-.4914 1.7615-.8301l-.8807-1.5673c-.406.2457-.8188.4383-1.2317.5778-.4128.1394-.8601.2058-1.3417.2058-.9014 0-1.6445-.259-2.2225-.777s-.9289-1.2551-1.0459-2.2114h7.0459c.0275-.1329.055-.3055.0757-.5247.0275-.21915.0344-.45158.0344-.6973 0-.73716-.0963-1.42119-.2959-2.04546-.1995-.62426-.4816-1.16218-.8738-1.61378-.3854-.45159-.8601-.79693-1.4312-1.04929-.5711-.24572-1.2317-.3719-1.9886-.3719-.6468 0-1.2798.13283-1.8991.39183-.6192.259-1.1628.6309-1.6376 1.10906-.4747.47815-.8532 1.06921-1.1422 1.76652-.2821.69732-.4266 1.48096-.4266 2.35092 0 .8899.1376 1.6736.4198 2.3642.2821.6907.6674 1.2751 1.1628 1.7533.4954.4781 1.0734.8434 1.7339 1.1024.6606.2524 1.3762.3785 2.1468.3785.7156.0133 1.3899-.0929 2.0367-.3121zm-17.5252-1.9392c-.3853-.1328-.7706-.3652-1.1628-.6973v-4.98744c.8394-.79692 1.6582-1.19539 2.4357-1.19539.8395 0 1.4519.29885 1.8303.89655.3785.59769.5642 1.42783.5642 2.50368 0 1.222-.2477 2.1384-.7431 2.756-.4954.6177-1.1147.9232-1.8509.9232-.3303 0-.6881-.0665-1.0734-.1993zm3.3991 1.8728c.5711-.259 1.0734-.6375 1.5138-1.1356.4403-.4981.7844-1.1024 1.0458-1.8197.2615-.7172.3922-1.5341.3922-2.45053 0-.83013-.0963-1.57393-.2959-2.24468-.1995-.67075-.4816-1.23524-.86-1.7134-.3785-.47151-.8326-.83677-1.3762-1.08913s-1.1628-.37854-1.8509-.37854c-.5711 0-1.1284.12618-1.6789.3719s-1.0596.57113-1.5275.95631l.0688-1.78645v-3.95808h-2.5941v15.3807h2.0505l.2271-1.129h.0688c.4679.4516.9633.7903 1.4793 1.0361.523.239 1.0321.3586 1.5482.3586.6193-.0067 1.2179-.1395 1.789-.3985zm-25.3968.1328v-7.47118c.8601-.8899 1.6307-1.32821 2.3257-1.32821.5849 0 1.0183.1793 1.3005.54456.2752.36526.4197.98952.4197 1.87279v6.38204h2.594v-7.47118c.8601-.8899 1.6307-1.32821 2.3257-1.32821.5711 0 .9977.1793 1.2729.54456.2753.36526.4198.98952.4198 1.87279v6.38204h2.6215v-6.70746c0-1.36806-.2752-2.41735-.8325-3.14787-.5574-.73051-1.4244-1.10241-2.5941-1.10241-.7087 0-1.3486.18595-1.9197.54456-.5711.36526-1.1216.8235-1.6445 1.37471-.2546-.61098-.6261-1.0825-1.1147-1.41455-.4885-.33206-1.1422-.50472-1.9541-.50472-.695 0-1.3142.16602-1.8647.50472-.5504.33205-1.0527.73716-1.5206 1.22196h-.0895l-.1789-1.46104h-2.1399v10.6988h2.5734zm-13.1353-8.3478c.4954-.45159 1.0734-.67739 1.7408-.67739.7638 0 1.3349.23908 1.7064.70395.3647.47152.5505 1.12234.5505 1.95248h-4.9197c.1169-.86334.4266-1.52745.922-1.97904zm4.0665 8.2814c.6468-.2191 1.2317-.4914 1.7615-.8301l-.8808-1.5673c-.4059.2457-.8188.4383-1.2316.5778-.4129.1394-.8601.2058-1.3418.2058-.9013 0-1.6444-.259-2.2224-.777s-.9289-1.2551-1.0459-2.2114h7.039c.0275-.1329.055-.3055.0757-.5247.0275-.21915.0344-.45158.0344-.6973 0-.73716-.0964-1.42119-.2959-2.04546-.1995-.62426-.4816-1.16218-.8738-1.61378-.3854-.45159-.8601-.79693-1.4312-1.04929-.5711-.24572-1.2317-.3719-1.9886-.3719-.6468 0-1.2798.13283-1.8991.39183-.6192.259-1.1628.6309-1.6376 1.10906-.4747.47815-.8532 1.06921-1.1422 1.76652-.2821.69732-.4266 1.48096-.4266 2.35092 0 .8899.1376 1.6736.4198 2.3642.2821.6907.6674 1.2751 1.1628 1.7533.4954.4781 1.0734.8434 1.7339 1.1024.6606.2524 1.3762.3785 2.1468.3785.7156.0133 1.3968-.0929 2.0436-.3121zm-22.80274.0664v-6.51486c0-.33206-.01376-.69732-.0344-1.08914s-.05505-.79029-.08945-1.18875c-.0344-.39847-.06881-.79029-.11009-1.17547-.04129-.38519-.06881-.7438-.10321-1.07586h.08945l1.1766 3.3139 2.43578 6.40198h1.55505l2.41511-6.40198 1.1973-3.3139h.0894c-.0275.33206-.0688.69067-.1101 1.07586-.0481.38518-.0825.777-.1169 1.17547-.0276.39846-.0551.79693-.0757 1.18875-.0276.39182-.0344.75708-.0344 1.08914v6.51486h2.4151v-14.25172h-2.9794l-2.55271 6.97313c-.16514.45159-.31651.90983-.46101 1.38134-.13761.47816-.29587.94305-.46101 1.40795h-.08945c-.16513-.4649-.32339-.92979-.47477-1.40795-.15137-.47151-.30963-.92975-.47477-1.38134l-2.61467-6.97313h-2.95872v14.24512h2.36697z"/></g></svg>