<svg fill="none" height="16" viewBox="0 0 16 16" width="16" xmlns="http://www.w3.org/2000/svg"><path d="m15.1193 5.65929-.0324-.09719-.0324-.0972h-.0081c-.3239-.90712-.818-1.74136-1.4578-2.4622-.1701-.19438-.3564-.38067-.5508-.55076-.737-.67224-1.6199-1.2068-2.608-1.546972h-.0081c-.2592-.089093-.52645-.161987-.80183-.226782-.55076-.121491-1.09341-.178186-1.62797-.178186-.27538 0-.55886.016199-.83423.048596-.42927.048596-.84234.12959-1.2473.25108-2.39741.696544-4.38175 2.575594-5.110694 5.110694-.048596.15388-.089093.31587-.12149.47786-.056696.25918-.105292.52646-.12959.78564-.032397.28347-.048596.55885-.048596.83423 0 .80184.137689 1.58747.38067 2.3326h-.0081l.040497.0972.032397.0891h.0081c.332076.9233.842336 1.7819 1.506476 2.5108.17819.1944.37257.3888.56696.567.72084.6479 1.57937 1.1582 2.54319 1.4821l.0162.0081c.25918.0891.53456.162.80994.2268.54265.1215 1.08531.1782 1.61987.1782.31587 0 .63175-.0162.93952-.0567.44547-.0567.87473-.1539 1.29588-.2835 2.2921-.7208 4.1793-2.527 4.9244-4.9406.0648-.1944.1134-.39685.162-.60743.0486-.22678.0891-.44546.1134-.67225.0405-.31587.0567-.63174.0567-.94762-.0081-.80184-.1458-1.58747-.3888-2.33261zm-13.3477.97192c.0243-.10529.04859-.20248.07289-.29968.16199-.60745.41307-1.1744.73704-1.69276.51836-.83423 1.22301-1.53078 2.04914-2.04104.51836-.32397 1.08531-.57505 1.68466-.73704.54266-.15389 1.10962-.22678 1.68467-.22678.45356 0 .91523.0486 1.36879.14579 1.05291.23488 1.98431.72084 2.75381 1.37689l-8.97411 8.97411c-.96382-1.1339-1.53078-2.59182-1.53078-4.1307.0081-.45356.0567-.91523.15389-1.36879zm12.4568 2.73758c-.0324.14579-.0729.29158-.1134.42927-.1944.66414-.486 1.27164-.8666 1.81424-.4374.6318-.98 1.1744-1.6037 1.6118-.5588.3888-1.1825.6884-1.83855.8909-.57505.1701-1.1825.2673-1.80615.2673-.45356 0-.91523-.0486-1.36879-.1458-1.02862-.2268-1.94385-.6965-2.69709-1.3283l8.94978-8.99027c.9395 1.12581 1.4903 2.56749 1.4903 4.08207 0 .45356-.0486.91523-.1458 1.36879z" fill="#b50000"/></svg>