<svg fill="none" height="80" viewBox="0 0 80 80" width="80" xmlns="http://www.w3.org/2000/svg"><g fill="#21295e"><path d="m64.7426 49.5454c-.0075-.0075-.0075-.0075 0-.0151.8258-.8561 1.2652-1.9849 1.25-3.1743l-.0075-1.2197c-.0379-2.4924-2.0758-4.4924-4.5379-4.4924l-14.7273.0682c-.0076 0-.0151-.0076-.0151-.0152l-.0228-7.803c-.0075-2.4773-2.0303-4.4924-4.5-4.4924h-.0606l-1.9697.0076c-2.0985.0303-3.7651 1.4621-4.3939 3.7348-.4394 1.6061-1.1515 3.9849-1.9015 6.5-.9925 3.3409-1.7652 5.9697-2.3637 8.0833 0 .0076-.0151.0076-.0227 0-.8182-1.4015-2.3636-2.3484-4.1288-2.3484h-6.0606c-2.6136 0-4.7424 2.0681-4.7424 4.6136v17.9242c0 2.5455 2.1288 4.6137 4.7424 4.6137h6.0606c2.4697 0 4.5076-1.8485 4.7197-4.197 0-.0076.0152-.0151.0227-.0076 1.8258 2.4773 4.5606 4.4167 7.2425 5.2879 1.0303.3333 3.1894.7197 10.7878.7197 3.4319 0 6.4091-.0833 6.7728-.0909 1.1894-.0152 2.3106-.4924 3.1515-1.3485.856-.8712 1.3106-2.0151 1.2954-3.2121l-.0075-.5303c0-.7121-.1819-1.4243-.5228-2.053 0-.0076 0-.0152.0076-.0152 1.0985-.25 2.0833-.9242 2.7576-1.9242.5151-.7728.7348-1.7122.7273-2.644l-.0152-1.1288c-.0151-.8636-.2651-1.6666-.697-2.3485 0-.0075 0-.0151.0076-.0151.8485-.4318 1.5758-1.1364 2.0455-2.0758.3182-.6439.4394-1.3636.4394-2.0757l-.0152-1.1743c-.0151-1.1969-.4848-2.3106-1.3182-3.1515zm-35.6818 17.3712c0 .8712-.7651 1.5834-1.7121 1.5834h-6.0606c-.947 0-1.7121-.7046-1.7121-1.5834v-17.9242c0-.8712.7651-1.5833 1.7121-1.5833h6.0606c.947 0 1.7121.7045 1.7121 1.5833zm32.5152-11.4469-1.3561.0151-.6818.0227-.3409 3.4773.553-.0454c.8182 0 1.5.6742 1.5076 1.4924l.0151 1.2424c.0076.8182-.6591 1.4849-1.4772 1.4849l-2.6212.0303c-.0076 0-.0076.0075-.0152.0075l-.5758 3.5h.2803-.0606l.6743.0076-.6137-.0076c.3713.0228.7122.1743.9849.4319.2879.2727.4394.6515.447 1.0378l.0075.5455c.0076.3939-.1439.7576-.4242 1.0379-.2803.2878-.6515.4469-1.0455.4469 0 0-3.1363.091-6.7197.091-3.9469 0-8.4318-.1061-9.8484-.5682-3.3637-1.0909-7.2425-4.5606-7.2879-8.2652l-.0758-7.4242c-.0227-2.1591 4.2728-15.644 5.7728-21.0834.2121-.7803.6742-1.5 1.4848-1.5075l2.0076-.0076h.0227c.8106 0 1.4697.6591 1.4697 1.4773l.0303 10.8484.9697-.0075 16.7879-.0834c.8106 0 1.5.6743 1.5076 1.4849l.0075 1.25c.0152.8182-.6515 1.4848-1.4697 1.4924l-1.8636.0833c-.0076 0-.0152.0076-.0152.0152l.2122 3.25c0 .0076.0075.0076.0151.0076l1.6894-.0076c.394 0 .7652.1591 1.053.4318.2879.2879.447.6591.4546 1.053l.0151 1.25c.0076.8182-.6591 1.4849-1.4772 1.4925z"/><path d="m50.9326 25.9699 9.8561-9.8637c.4697-.4697.6515-1.2045.3409-1.7954-.5076-.9697-1.7273-1.0985-2.4319-.394l-9.856 9.8561c-.4697.4697-.6515 1.2045-.3409 1.7955.5075.9697 1.7272 1.106 2.4318.4015z"/><path d="m67.6141 32.2046h-13.9394c-.6666 0-1.3106.3939-1.5151 1.0303-.3258 1.0455.447 2 1.4394 2h13.947c.6666 0 1.3106-.3939 1.5151-1.0303.3182-1.0379-.447-2-1.447-2z"/><path d="m41.7197 23.6365c.6364-.197 1.0303-.8409 1.0303-1.5152v-13.8712c0-.66666-.3939-1.3106-1.0303-1.51515-1.0454-.32576-2 .44697-2 1.4394v14.01515c0 1 .9546 1.7727 2 1.447z"/><path d="m31.5301 25.9697c.7045.7046 1.9242.5682 2.4318-.3939.3106-.5909.1288-1.3258-.3409-1.7955l-9.8106-9.8106c-.4697-.4697-1.2046-.6515-1.7955-.3409-.9697.5076-1.0985 1.7273-.3939 2.4318z"/><path d="m30.3033 33.2349c-.197-.6364-.8409-1.0303-1.5152-1.0303h-13.8712c-.6666 0-1.3106.3939-1.5151 1.0303-.3258 1.0455.4469 2 1.4394 2h14.0151c1 0 1.7727-.9545 1.447-2z"/></g></svg>