<svg fill="none" height="30" viewBox="0 0 30 30" width="30" xmlns="http://www.w3.org/2000/svg"><g fill="#fff"><path d="m14.995 4.75198c3.3383 0 3.7302.01488 5.0496.07441 1.2203.05456 1.88.25793 2.3215.43154.5853.22818 1.002.49603 1.4385.93254s.7093.85318.9325 1.43849c.1687.44147.377 1.10119.4316 2.32143.0595 1.31941.0744 1.71131.0744 5.04961s-.0149 3.7301-.0744 5.0496c-.0546 1.2202-.258 1.8799-.4316 2.3214-.2282.5853-.496 1.002-.9325 1.4385s-.8532.7093-1.4385.9325c-.4415.1687-1.1012.377-2.3215.4316-1.3194.0595-1.7113.0744-5.0496.0744s-3.7301-.0149-5.04956-.0744c-1.22024-.0546-1.87996-.258-2.32143-.4316-.58532-.2281-1.00199-.496-1.43849-.9325-.43651-.4365-.70933-.8532-.93254-1.4385-.16865-.4415-.37699-1.1012-.43155-2.3214-.05953-1.3195-.07441-1.7113-.07441-5.0496s.01488-3.7302.07441-5.04961c.05456-1.22024.25794-1.87996.43155-2.32143.22817-.58531.49603-1.00198.93254-1.43849.4365-.43651.85317-.70932 1.43849-.93254.44147-.16865 1.10119-.37698 2.32143-.43154 1.31946-.06449 1.71626-.07441 5.04956-.07441zm0-2.25198c-3.3928 0-3.8194.01488-5.15373.0744-1.32937.05953-2.2371.27282-3.03075.58036-.82342.31746-1.51786.74901-2.21231 1.44345-.69444.69445-1.12103 1.39385-1.44345 2.2123-.30754.79365-.52083 1.70139-.58036 3.03571-.05952 1.32938-.0744 1.75598-.0744 5.14878 0 3.3929.01488 3.8195.0744 5.1538.05953 1.3294.27282 2.2371.58036 3.0357.31746.8234.74901 1.5179 1.44345 2.2123.69445.6944 1.39385 1.121 2.21231 1.4435.79365.3075 1.70139.5208 3.03571.5803 1.33437.0595 1.75597.0744 5.15377.0744s3.8194-.0149 5.1538-.0744c1.3293-.0595 2.2371-.2728 3.0357-.5803.8234-.3175 1.5178-.7491 2.2123-1.4435.6944-.6944 1.121-1.3938 1.4434-2.2123.3076-.7936.5209-1.7014.5804-3.0357s.0744-1.756.0744-5.1538-.0149-3.8194-.0744-5.15374c-.0595-1.32936-.2728-2.2371-.5804-3.03571-.3174-.82341-.749-1.51785-1.4434-2.2123-.6945-.69444-1.3939-1.12103-2.2123-1.44345-.7937-.30754-1.7014-.52083-3.0357-.58036-1.3393-.05456-1.7659-.06944-5.1588-.06944z"/><path d="m14.9951 8.58154c-3.5417 0-6.41867 2.87206-6.41867 6.41866s2.87207 6.4186 6.41867 6.4186 6.4186-2.872 6.4186-6.4186-2.872-6.41866-6.4186-6.41866zm0 10.58036c-2.3016 0-4.1667-1.8651-4.1667-4.1667s1.8651-4.1666 4.1667-4.1666 4.1666 1.865 4.1666 4.1666-1.865 4.1667-4.1666 4.1667z"/><path d="m21.6668 9.82122c.8273 0 1.498-.67068 1.498-1.49801s-.6707-1.49801-1.498-1.49801c-.8274 0-1.4981.67068-1.4981 1.49801s.6707 1.49801 1.4981 1.49801z"/></g></svg>