<svg width="30" height="30" viewBox="0 0 30 30" fill="none" xmlns="http://www.w3.org/2000/svg">
<path d="M4.09137 11.221H8.40529V26.25H4.09137V11.221ZM6.25 3.75C7.62885 3.75 8.75 4.96435 8.75 6.45783C8.75 7.95493 7.62885 9.16566 6.25 9.16566C4.8678 9.16566 3.75 7.95493 3.75 6.45783C3.75 4.96435 4.8678 3.75 6.25 3.75Z" fill="white"/>
<path d="M11.25 11.6171H15.8642V13.6147H15.9314C16.5735 12.4641 18.1452 11.25 20.4822 11.25C25.3503 11.25 26.25 14.2818 26.25 18.2206V26.2465H21.4454V19.1347C21.4454 17.4371 21.4118 15.2524 18.9441 15.2524C16.4391 15.2524 16.0584 17.1018 16.0584 19.0112V26.25H11.25V11.6171Z" fill="white"/>
</svg>
