<svg fill="none" height="30" viewBox="0 0 30 30" width="30" xmlns="http://www.w3.org/2000/svg"><g fill="#fff"><path d="m4.09137 11.221h4.31392v15.029h-4.31392zm2.15863-7.471c1.37885 0 2.5 1.21435 2.5 2.70783 0 1.4971-1.12115 2.70783-2.5 2.70783-1.3822 0-2.5-1.21073-2.5-2.70783 0-1.49348 1.1178-2.70783 2.5-2.70783z"/><path d="m11.25 11.6171h4.6142v1.9976h.0672c.6421-1.1506 2.2138-2.3647 4.5508-2.3647 4.8681 0 5.7678 3.0318 5.7678 6.9706v8.0259h-4.8046v-7.1118c0-1.6976-.0336-3.8823-2.5013-3.8823-2.505 0-2.8857 1.8494-2.8857 3.7588v7.2388h-4.8084z"/></g></svg>