<svg width="253" height="50" viewBox="0 0 253 50" fill="none" xmlns="http://www.w3.org/2000/svg">
<path d="M50.8352 17.8772C50.9463 18.6306 51.1512 19.1896 51.4636 19.5611C52.0365 20.2382 53.0156 20.5784 54.4044 20.5784C55.2342 20.5784 55.9113 20.4916 56.4286 20.3111C57.4112 19.9708 57.9042 19.332 57.9042 18.4015C57.9042 17.8599 57.6646 17.4397 57.1855 17.1412C56.7063 16.8495 55.9425 16.5926 54.8974 16.3704L53.1094 15.978C51.3491 15.5927 50.1443 15.1725 49.4881 14.7177C48.3805 13.9573 47.825 12.7734 47.825 11.1589C47.825 9.68681 48.3666 8.46467 49.4534 7.48905C50.5401 6.51342 52.1337 6.02734 54.2343 6.02734C55.9946 6.02734 57.491 6.48564 58.7305 7.40225C59.97 8.3258 60.6227 9.65904 60.6818 11.4054H57.4007C57.3382 10.4194 56.8973 9.71806 56.0675 9.30489C55.512 9.03061 54.8315 8.8952 54.0086 8.8952C53.0955 8.8952 52.3698 9.07574 51.8247 9.42989C51.2796 9.7875 51.0053 10.284 51.0053 10.9228C51.0053 11.5061 51.2762 11.9436 51.8108 12.2318C52.1546 12.4262 52.8837 12.6519 54.0017 12.9123L56.8938 13.5893C58.1611 13.8844 59.109 14.2837 59.7374 14.7837C60.7165 15.5579 61.206 16.6759 61.206 18.1411C61.206 19.6479 60.6262 20.8909 59.4631 21.8839C58.3 22.8769 56.6577 23.3734 54.5329 23.3734C52.3664 23.3734 50.6616 22.8838 49.4187 21.9047C48.1757 20.9291 47.5542 19.582 47.5542 17.8737H50.8352V17.8772Z" fill="#1D2347"/>
<path d="M67.6328 15.5652C68.2265 15.4888 68.6501 15.3985 68.9035 15.284C69.3584 15.0895 69.5875 14.7875 69.5875 14.3778C69.5875 13.8778 69.4139 13.5306 69.0598 13.3396C68.7091 13.1487 68.1918 13.0515 67.5147 13.0515C66.7474 13.0515 66.2093 13.239 65.8933 13.607C65.6642 13.8813 65.5114 14.2493 65.4385 14.718H62.3762C62.4456 13.6556 62.7442 12.7841 63.2754 12.1001C64.1226 11.0308 65.5704 10.4961 67.6258 10.4961C68.966 10.4961 70.1534 10.76 71.195 11.2912C72.2331 11.8224 72.7539 12.8223 72.7539 14.2875V19.8704C72.7539 20.2593 72.7609 20.728 72.7782 21.2766C72.7991 21.6967 72.8616 21.9814 72.9692 22.1342C73.0699 22.2869 73.2227 22.4085 73.431 22.5057V22.964H69.9798C69.8826 22.7209 69.8201 22.4953 69.7785 22.2835C69.7437 22.0682 69.7125 21.8252 69.6917 21.5544C69.2507 22.037 68.7403 22.4432 68.1675 22.78C67.4765 23.1758 66.6988 23.3771 65.8308 23.3771C64.7233 23.3771 63.8101 23.0577 63.0845 22.4293C62.3658 21.8009 62.0012 20.9016 62.0012 19.7455C62.0012 18.2421 62.581 17.1554 63.7476 16.4818C64.383 16.1172 65.317 15.8534 66.5565 15.6971L67.6328 15.5652ZM69.5771 17.0477C69.3757 17.1762 69.1674 17.2769 68.9591 17.3567C68.7508 17.4366 68.4661 17.5095 68.105 17.5755L67.3793 17.7074C66.6988 17.8254 66.2127 17.9747 65.9176 18.1483C65.4246 18.44 65.1746 18.8948 65.1746 19.5094C65.1746 20.0579 65.3309 20.4503 65.6364 20.6933C65.9419 20.9398 66.3134 21.0613 66.7509 21.0613C67.4453 21.0613 68.0841 20.8565 68.6674 20.4537C69.2542 20.0475 69.5597 19.3115 69.5771 18.2386V17.0477Z" fill="#1D2347"/>
<path d="M80.0312 6.33615C80.1943 6.3431 80.4131 6.35699 80.6978 6.37087V8.95403C80.5207 8.95403 80.2221 8.94708 79.802 8.93667C79.3854 8.92625 79.0937 9.01999 78.934 9.2179C78.7778 9.41927 78.6945 9.63454 78.6945 9.8741C78.6945 10.1137 78.6945 10.4574 78.6945 10.9053H80.7707V13.1482H78.6945V22.9669H75.5593V13.1482H73.7747V10.9053H75.5106V10.1171C75.5106 8.79779 75.7294 7.8916 76.1669 7.39511C76.6217 6.67988 77.7292 6.32227 79.4861 6.32227C79.6874 6.32227 79.8645 6.32921 80.0312 6.33615Z" fill="#1D2347"/>
<path d="M88.7875 10.5026C88.8327 10.5061 88.9229 10.513 89.0618 10.52V13.7767C88.8604 13.7593 88.6834 13.7454 88.5271 13.7385C88.3709 13.735 88.2424 13.7315 88.1487 13.7315C86.8675 13.7315 86.0099 14.1482 85.569 14.9815C85.3225 15.4502 85.2044 16.1723 85.2044 17.148V22.9705H82.0206V10.7838H85.0343V12.9087C85.5239 12.0962 85.9544 11.5407 86.3155 11.2421C86.9092 10.7422 87.6834 10.4922 88.6382 10.4922C88.7007 10.4957 88.7493 10.4991 88.7875 10.5026Z" fill="#1D2347"/>
<path d="M95.2175 15.5652C95.8078 15.4888 96.2314 15.3985 96.4883 15.284C96.9431 15.0895 97.1758 14.7875 97.1758 14.3778C97.1758 13.8778 96.9987 13.5306 96.648 13.3396C96.2973 13.1487 95.7835 13.0515 95.0995 13.0515C94.3391 13.0515 93.7975 13.239 93.4816 13.607C93.2524 13.8813 93.1031 14.2493 93.0302 14.718H89.9644C90.0339 13.6556 90.3325 12.7841 90.8602 12.1001C91.7109 11.0308 93.1587 10.4961 95.2141 10.4961C96.5508 10.4961 97.7382 10.76 98.7798 11.2912C99.8179 11.8224 100.339 12.8223 100.339 14.2875V19.8704C100.339 20.2593 100.346 20.728 100.36 21.2766C100.38 21.6967 100.446 21.9814 100.547 22.1342C100.655 22.2869 100.807 22.4085 101.016 22.5057V22.964H97.5681C97.4709 22.7209 97.4049 22.4953 97.3667 22.2835C97.3285 22.0682 97.3007 21.8252 97.2764 21.5544C96.832 22.037 96.3251 22.4432 95.7488 22.78C95.0613 23.1758 94.2836 23.3771 93.4121 23.3771C92.3046 23.3771 91.388 23.0577 90.6658 22.4293C89.9401 21.8009 89.5825 20.9016 89.5825 19.7455C89.5825 18.2421 90.1623 17.1554 91.322 16.4818C91.9608 16.1172 92.8983 15.8534 94.1343 15.6971L95.2175 15.5652ZM97.1584 17.0477C96.9535 17.1762 96.7487 17.2769 96.5404 17.3567C96.3355 17.4366 96.0474 17.5095 95.6828 17.5755L94.9606 17.7074C94.2836 17.8254 93.794 17.9747 93.5024 18.1483C93.0059 18.44 92.7594 18.8948 92.7594 19.5094C92.7594 20.0579 92.9121 20.4503 93.2177 20.6933C93.5232 20.9398 93.8947 21.0613 94.3322 21.0613C95.0301 21.0613 95.6689 20.8565 96.2522 20.4537C96.8355 20.0475 97.1376 19.3115 97.1619 18.2386V17.0477H97.1584Z" fill="#1D2347"/>
<path d="M108.585 6.48926H112.171L118.716 17.9468V6.48926H121.9V22.9673H118.48L111.769 11.2667V22.9673H108.585V6.48926Z" fill="#1D2347"/>
<path d="M129.149 15.5652C129.74 15.4888 130.167 15.3985 130.42 15.284C130.875 15.0895 131.104 14.7875 131.104 14.3778C131.104 13.8778 130.927 13.5306 130.573 13.3396C130.226 13.1487 129.708 13.0515 129.028 13.0515C128.264 13.0515 127.722 13.239 127.406 13.607C127.181 13.8813 127.031 14.2493 126.955 14.718H123.889C123.955 13.6556 124.257 12.7841 124.785 12.1001C125.629 11.0308 127.077 10.4961 129.135 10.4961C130.476 10.4961 131.663 10.76 132.705 11.2912C133.743 11.8224 134.264 12.8223 134.264 14.2875V19.8704C134.264 20.2593 134.271 20.728 134.284 21.2766C134.305 21.6967 134.368 21.9814 134.468 22.1342C134.573 22.2869 134.725 22.4085 134.934 22.5057V22.964H131.486C131.389 22.7209 131.323 22.4953 131.285 22.2835C131.246 22.0682 131.219 21.8252 131.194 21.5544C130.753 22.037 130.243 22.4432 129.667 22.78C128.979 23.1758 128.198 23.3771 127.33 23.3771C126.226 23.3771 125.309 23.0577 124.587 22.4293C123.862 21.8009 123.504 20.9016 123.504 19.7455C123.504 18.2421 124.084 17.1554 125.243 16.4818C125.882 16.1172 126.82 15.8534 128.056 15.6971L129.149 15.5652ZM131.094 17.0477C130.892 17.1762 130.684 17.2769 130.479 17.3567C130.271 17.4366 129.983 17.5095 129.622 17.5755L128.896 17.7074C128.215 17.8254 127.729 17.9747 127.438 18.1483C126.941 18.44 126.691 18.8948 126.691 19.5094C126.691 20.0579 126.844 20.4503 127.153 20.6933C127.455 20.9398 127.827 21.0613 128.264 21.0613C128.958 21.0613 129.597 20.8565 130.184 20.4537C130.771 20.0475 131.073 19.3115 131.094 18.2386V17.0477Z" fill="#1D2347"/>
<path d="M135.271 13.1487V10.9058H136.958V7.48242H140.114V10.9058H142.093V13.1487H140.114V19.6031C140.114 20.0996 140.18 20.4156 140.305 20.5371C140.433 20.6621 140.822 20.7211 141.468 20.7211C141.565 20.7211 141.666 20.7176 141.777 20.7107C141.885 20.7037 141.989 20.6898 142.093 20.6725V23.0612L140.583 23.1341C139.076 23.1897 138.045 22.9258 137.493 22.3494C137.135 21.9884 136.954 21.419 136.954 20.6621V13.1487H135.271Z" fill="#1D2347"/>
<path d="M146.818 9.33986H143.586V6.41992H146.818V9.33986ZM143.586 10.7842H146.818V22.9674H143.586V10.7842Z" fill="#1D2347"/>
<path d="M159.547 21.4784C158.519 22.7457 156.956 23.381 154.866 23.381C152.773 23.381 151.214 22.7457 150.186 21.4784C149.158 20.2077 148.645 18.68 148.645 16.8989C148.645 15.1386 149.158 13.6178 150.186 12.3332C151.214 11.0486 152.776 10.4062 154.866 10.4062C156.956 10.4062 158.519 11.0486 159.547 12.3332C160.574 13.6178 161.092 15.1386 161.092 16.8989C161.092 18.68 160.574 20.2077 159.547 21.4784ZM157.005 19.7285C157.508 19.0688 157.758 18.1279 157.758 16.9058C157.758 15.6871 157.508 14.7462 157.005 14.0866C156.505 13.4269 155.783 13.097 154.845 13.097C153.912 13.097 153.189 13.4269 152.679 14.0866C152.176 14.7428 151.922 15.6837 151.922 16.9058C151.922 18.1245 152.176 19.0654 152.679 19.7285C153.186 20.3951 153.908 20.7215 154.845 20.7215C155.783 20.725 156.505 20.3951 157.005 19.7285Z" fill="#1D2347"/>
<path d="M172.608 11.4851C173.407 12.1482 173.806 13.2419 173.806 14.7661V22.9669H170.525V15.5612C170.525 14.9224 170.438 14.4328 170.271 14.0856C169.962 13.4607 169.372 13.1482 168.504 13.1482C167.435 13.1482 166.702 13.6065 166.303 14.5196C166.095 15.0022 165.99 15.6202 165.99 16.3736V22.9635H162.807V10.8115H165.893V12.5927C166.303 11.9677 166.688 11.5129 167.053 11.2351C167.706 10.7456 168.532 10.4991 169.535 10.4991C170.789 10.4956 171.813 10.8254 172.608 11.4851Z" fill="#1D2347"/>
<path d="M181.024 15.5652C181.618 15.4888 182.041 15.3985 182.295 15.284C182.75 15.0895 182.979 14.7875 182.979 14.3778C182.979 13.8778 182.805 13.5306 182.451 13.3396C182.1 13.1487 181.583 13.0515 180.906 13.0515C180.139 13.0515 179.601 13.239 179.285 13.607C179.056 13.8813 178.903 14.2493 178.83 14.718H175.768C175.834 13.6556 176.132 12.7841 176.663 12.1001C177.507 11.0308 178.958 10.4961 181.014 10.4961C182.354 10.4961 183.541 10.76 184.583 11.2912C185.621 11.8224 186.138 12.8223 186.138 14.2875V19.8704C186.138 20.2593 186.145 20.728 186.163 21.2766C186.184 21.6967 186.246 21.9814 186.35 22.1342C186.454 22.2869 186.607 22.4085 186.812 22.5057V22.964H183.364C183.267 22.7209 183.201 22.4953 183.163 22.2835C183.121 22.0682 183.097 21.8252 183.073 21.5544C182.632 22.037 182.121 22.4432 181.545 22.78C180.858 23.1758 180.076 23.3771 179.208 23.3771C178.104 23.3771 177.188 23.0577 176.462 22.4293C175.74 21.8009 175.375 20.9016 175.375 19.7455C175.375 18.2421 175.959 17.1554 177.118 16.4818C177.754 16.1172 178.691 15.8534 179.927 15.6971L181.024 15.5652ZM182.968 17.0477C182.764 17.1762 182.559 17.2769 182.35 17.3567C182.142 17.4366 181.857 17.5095 181.496 17.5755L180.771 17.7074C180.09 17.8254 179.604 17.9747 179.309 18.1483C178.816 18.44 178.566 18.8948 178.566 19.5094C178.566 20.0579 178.719 20.4503 179.024 20.6933C179.333 20.9398 179.701 21.0613 180.139 21.0613C180.833 21.0613 181.469 20.8565 182.055 20.4537C182.642 20.0475 182.944 19.3115 182.968 18.2386V17.0477Z" fill="#1D2347"/>
<path d="M191.624 22.9678H188.44V6.51758H191.624V22.9678Z" fill="#1D2347"/>
<path d="M212.515 8.24608C213.018 8.94742 213.268 9.78417 213.268 10.7598C213.268 11.7667 213.015 12.5756 212.508 13.1832C212.223 13.5304 211.803 13.8394 211.251 14.1241C212.091 14.4297 212.727 14.9158 213.154 15.5754C213.581 16.2421 213.796 17.0476 213.796 17.9919C213.796 18.9676 213.553 19.846 213.064 20.6202C212.751 21.1375 212.362 21.5681 211.897 21.9187C211.373 22.3215 210.755 22.5993 210.04 22.7451C209.328 22.8909 208.55 22.9673 207.717 22.9673H200.311V6.48926H208.255C210.258 6.52051 211.675 7.10727 212.515 8.24608ZM203.596 9.33975V12.9819H207.585C208.3 12.9819 208.876 12.843 209.324 12.5722C209.769 12.2979 209.991 11.8153 209.991 11.1209C209.991 10.3501 209.696 9.83972 209.109 9.59668C208.602 9.42655 207.956 9.33975 207.165 9.33975H203.596ZM203.596 15.7074V20.1203H207.585C208.297 20.1203 208.849 20.023 209.248 19.8286C209.967 19.471 210.324 18.7801 210.324 17.7628C210.324 16.9017 209.977 16.315 209.279 15.9886C208.887 15.8081 208.342 15.7178 207.637 15.7108H203.596V15.7074Z" fill="#1D2347"/>
<path d="M220.764 15.5652C221.355 15.4888 221.778 15.3985 222.035 15.284C222.494 15.0895 222.719 14.7875 222.719 14.3778C222.719 13.8778 222.542 13.5306 222.191 13.3396C221.844 13.1487 221.327 13.0515 220.646 13.0515C219.883 13.0515 219.344 13.239 219.025 13.607C218.799 13.8813 218.647 14.2493 218.57 14.718H215.508C215.574 13.6556 215.872 12.7841 216.407 12.1001C217.247 11.0308 218.702 10.4961 220.758 10.4961C222.098 10.4961 223.285 10.76 224.327 11.2912C225.365 11.8224 225.886 12.8223 225.886 14.2875V19.8704C225.886 20.2593 225.893 20.728 225.906 21.2766C225.927 21.6967 225.99 21.9814 226.094 22.1342C226.198 22.2869 226.351 22.4085 226.559 22.5057V22.964H223.112C223.014 22.7209 222.945 22.4953 222.91 22.2835C222.872 22.0682 222.844 21.8252 222.82 21.5544C222.379 22.037 221.869 22.4432 221.292 22.78C220.605 23.1758 219.824 23.3771 218.956 23.3771C217.848 23.3771 216.931 23.0577 216.209 22.4293C215.487 21.8009 215.126 20.9016 215.126 19.7455C215.126 18.2421 215.706 17.1554 216.865 16.4818C217.504 16.1172 218.442 15.8534 219.678 15.6971L220.764 15.5652ZM222.709 17.0477C222.504 17.1762 222.296 17.2769 222.091 17.3567C221.882 17.4366 221.594 17.5095 221.237 17.5755L220.508 17.7074C219.827 17.8254 219.341 17.9747 219.046 18.1483C218.553 18.44 218.306 18.8948 218.306 19.5094C218.306 20.0579 218.459 20.4503 218.761 20.6933C219.07 20.9398 219.442 21.0613 219.879 21.0613C220.57 21.0613 221.212 20.8565 221.796 20.4537C222.379 20.0475 222.681 19.3115 222.709 18.2386V17.0477Z" fill="#1D2347"/>
<path d="M237.933 11.4851C238.732 12.1482 239.131 13.2419 239.131 14.7661V22.9669H235.85V15.5612C235.85 14.9224 235.77 14.4328 235.597 14.0856C235.288 13.4607 234.698 13.1482 233.83 13.1482C232.76 13.1482 232.028 13.6065 231.628 14.5196C231.423 15.0022 231.319 15.6202 231.319 16.3736V22.9635H228.135V10.8115H231.222V12.5927C231.628 11.9677 232.014 11.5129 232.378 11.2351C233.031 10.7456 233.857 10.4991 234.857 10.4991C236.114 10.4956 237.138 10.8254 237.933 11.4851Z" fill="#1D2347"/>
<path d="M241.527 6.56543H244.662V15.4294L248.631 10.8568H252.575L248.245 15.3912L252.741 22.9671H248.894L245.971 17.766L244.659 19.1375V22.9671H241.523V6.56543H241.527Z" fill="#1D2347"/>
<path d="M114.702 35.1507C114.702 36.5256 114.063 38.3172 112.268 38.3172C110.498 38.3172 109.838 36.5256 109.838 35.1507C109.838 33.7758 110.498 31.9982 112.268 31.9982C114.063 31.9982 114.702 33.7758 114.702 35.1507ZM116.088 35.1507C116.088 31.401 113.817 30.6406 112.268 30.6406C110.723 30.6406 108.453 31.401 108.453 35.1507C108.453 38.9005 110.72 39.6747 112.268 39.6747C113.817 39.6747 116.088 38.9005 116.088 35.1507Z" fill="#1D2347"/>
<path d="M118.251 32.1092H117.108V30.8697H118.251V29.4392C118.251 28.0643 119.431 27.5956 119.608 27.5817C120.028 27.5018 120.48 27.5018 120.976 27.5956V28.7274C120.122 28.6302 119.608 28.7274 119.608 29.6302V30.8697H120.962V32.1092H119.608V39.3205H118.251V32.1092Z" fill="#1D2347"/>
<path d="M134.465 39.3204L128.503 29.9148V39.3204H126.997V27.5781H128.781L134.673 37.0809V27.5781H136.183V39.3169H134.465V39.3204Z" fill="#1D2347"/>
<path d="M139.548 34.4384C139.583 33.5878 140.065 32.6781 140.273 32.4872C140.725 31.8796 141.464 31.6851 142.127 31.7511C142.801 31.8171 143.419 32.1191 143.593 32.4872C143.804 32.7094 144.256 33.6537 144.204 34.4384H139.548ZM145.662 35.6293C145.648 34.0704 145.631 33.0739 144.721 31.8448C144.207 31.2025 143.259 30.7234 142.211 30.6366C141.162 30.5567 140.02 30.8796 139.1 31.9073C138.412 32.6747 138.076 33.9072 138.058 35.1432C138.041 36.3793 138.346 37.6014 138.909 38.3236C139.628 39.2367 140.773 39.6742 141.884 39.6742C143.013 39.6742 144.11 39.2575 144.735 38.4208C145.249 37.8271 145.377 37.2473 145.488 36.7334H144.127C143.936 37.216 143.548 38.5006 141.871 38.5006C140.885 38.5006 140.339 37.9555 139.971 37.4556C139.485 36.7021 139.454 36.2161 139.499 35.6224H145.662V35.6293Z" fill="#1D2347"/>
<path d="M146.145 30.873H147.658L149.314 37.4525L150.953 30.873H152.637L154.193 37.4316L155.929 30.873H157.442L154.946 39.3204H153.425L151.714 32.9007L150.082 39.3204H148.561L146.145 30.873Z" fill="#1D2347"/>
<path d="M162.765 27.5781L166.161 33.2791L169.494 27.5781H171.344L166.917 34.7269V39.3169H165.404V34.7269L160.911 27.5781H162.765Z" fill="#1D2347"/>
<path d="M176.035 35.1507C176.035 36.5256 175.393 38.3172 173.605 38.3172C171.827 38.3172 171.167 36.5256 171.167 35.1507C171.167 33.7758 171.827 31.9982 173.605 31.9982C175.396 31.9982 176.035 33.7758 176.035 35.1507ZM177.42 35.1507C177.42 31.401 175.153 30.6406 173.608 30.6406C172.059 30.6406 169.789 31.401 169.789 35.1507C169.789 38.9005 172.059 39.6747 173.608 39.6747C175.153 39.6747 177.42 38.9005 177.42 35.1507Z" fill="#1D2347"/>
<path d="M179.271 30.8698H180.628V32.21H180.663C181.159 31.2413 181.965 30.6892 182.58 30.6406H183.336V32.0607C182.84 32.0607 182.416 32.1266 182.048 32.2551C181.097 32.6891 180.632 33.4738 180.632 34.9389V39.3206H179.274V30.8698H179.271Z" fill="#1D2347"/>
<path d="M186.045 27.5781V34.3936L189.621 30.8696H191.364L188.416 33.7999L191.846 39.3169H190.187L187.399 34.8103L186.045 36.1504V39.3204H184.687V27.5781H186.045Z" fill="#1D2347"/>
<path d="M36.9855 21.7415C36.2321 20.8805 36.7321 20.45 37.0932 19.7729C37.732 18.5543 37.8813 18.0161 38.9541 15.9051C39.527 14.7768 39.8187 13.9469 39.6694 13.2213C39.1312 11.2874 37.0932 10.5444 36.3779 9.67641C36.246 9.52365 35.9891 9.43337 35.9092 9.28061C35.7773 9.02715 35.871 8.74245 35.871 8.74245C35.8745 8.73898 36.6731 7.19742 36.5897 6.95091C36.4196 6.45441 33.7219 4.98229 31.5033 4.08652C28.8229 3.11784 27.3612 2.72551 24.9551 2.11791C21.9796 1.36449 20.2298 0 20.2298 0C20.2298 0 18.4729 1.36449 15.5009 2.11791C13.0914 2.72551 11.6366 3.11784 8.94582 4.08652C6.72722 4.97882 4.02602 6.45441 3.85936 6.95091C3.77951 7.19742 4.57459 8.73551 4.57806 8.74245C4.57806 8.74245 4.67181 9.02715 4.53987 9.28061C4.46349 9.43337 4.20309 9.52365 4.07463 9.67641C3.3594 10.5444 1.31787 11.2874 0.779716 13.2213C0.630421 13.9504 0.918595 14.7768 1.49494 15.9051C2.56779 18.0161 2.71361 18.5543 3.3594 19.7729C3.71701 20.45 4.21698 20.884 3.46703 21.7415C1.10261 24.0331 -0.327846 27.3488 0.0644878 31.0881C0.390854 33.9907 1.74145 37.1189 3.68229 39.2542C4.69958 40.3687 5.47383 41.4034 9.05345 43.8372C13.7094 46.4134 17.8271 48.1355 20.2298 50C22.6254 48.1355 26.7432 46.4169 31.3991 43.8372C34.9822 41.3999 35.7565 40.3687 36.7737 39.2542C38.7146 37.1224 40.0686 33.9907 40.3915 31.0881C40.7839 27.3488 39.35 24.0296 36.9855 21.7415ZM34.694 39.5736C33.6767 40.6881 32.2602 41.8652 28.6424 43.799C25.2433 45.5559 22.6601 46.5905 20.1881 48.4203C17.716 46.5905 15.2127 45.5524 11.8102 43.799C8.1924 41.8652 6.77583 40.6881 5.75854 39.5736C2.60598 36.2093 1.56786 33.5255 1.35259 30.3C1.38731 27.2551 2.42544 24.4983 4.6475 22.3144C5.97033 21.0958 5.39745 20.8319 4.96693 20.0229C4.32461 18.8043 4.43224 18.8112 3.35593 16.5475C2.86638 15.5232 1.99491 14.0754 2.3178 13.1102C2.70667 12.2526 4.67181 10.9333 4.78985 10.8534C5.43911 10.4194 5.89742 10.1035 6.36266 9.67294C6.59181 9.29797 6.32447 9.09659 6.32447 9.09659C6.32447 9.09659 5.48772 7.75293 5.60924 7.52378C6.25503 6.30512 12.3761 4.30178 15.7787 3.51364C17.414 3.1352 20.2193 1.57975 20.2193 1.57975C20.2193 1.57975 23.0178 3.1352 24.66 3.51364C28.0591 4.30178 34.1836 6.30512 34.8294 7.52378C34.9475 7.75293 34.1142 9.09659 34.1142 9.09659C34.1142 9.09659 33.8469 9.29449 34.076 9.67294C34.5447 10.1035 35.003 10.4194 35.6558 10.8534C35.7738 10.9333 37.732 12.2491 38.1243 13.1102C38.4472 14.0789 37.5758 15.5267 37.0897 16.5475C36.0099 18.8112 36.121 18.8043 35.4752 20.0229C35.0447 20.8354 34.4718 21.0958 35.7981 22.3144C38.0202 24.4983 39.0583 27.2551 39.093 30.3C38.8847 33.5255 37.8431 36.2093 34.694 39.5736Z" fill="#1D2347"/>
<path d="M36.4508 31.1924C36.1244 30.873 35.2391 31.1265 35.128 31.3036C34.7738 30.1161 34.0656 29.0988 33.1941 28.4461C33.1941 28.4461 33.1906 28.2204 33.2983 28.1163C33.4996 28.0052 34.0829 28.0781 34.5516 27.8663C34.9093 27.6996 34.9822 28.7968 35.9474 28.6544C36.6348 28.5503 36.6314 27.8281 36.2356 27.901C36.114 27.8628 35.9508 28.1579 35.805 28.1892C35.3051 28.2933 35.2322 27.5434 35.2322 27.2205C35.2322 27.0782 35.5169 26.1754 35.3051 25.5713C35.0342 24.8109 34.1801 24.3943 33.7982 24.1409C33.6941 24.0679 33.5031 23.6235 33.7288 23.4603C34.2669 23.0645 33.2323 22.7069 33.0517 23.6062C32.9545 24.0957 33.1524 24.2311 33.1247 24.5019C33.0865 24.8248 32.1143 25.481 32.9094 26.0782C33.3399 26.4011 33.4719 25.8734 33.267 25.613C32.8747 25.1095 34.6627 24.3596 34.7357 26.2553C34.7669 27.0469 33.4684 27.401 33.1767 27.5087C30.9929 27.5087 29.2221 25.4151 29.2221 22.8354C29.2221 20.839 30.3054 19.1204 31.8018 18.4468C32.4094 17.7663 34.9162 17.8739 34.8086 16.8011C34.7322 16.065 34.0204 15.6901 33.6281 16.0824C33.4476 16.44 34.0586 16.4747 34.0204 16.8323C33.9892 17.1656 33.3955 17.2524 32.9823 16.9782C32.774 16.8393 32.6976 16.624 32.6594 16.2629C32.5171 14.829 35.3849 13.7909 35.3849 13.7909C35.3849 13.7909 33.017 13.0756 32.9476 12.3951C32.8886 11.8257 33.1628 11.7528 33.4128 12.0722C33.5621 12.2632 33.9857 11.857 33.4857 11.3917C33.0899 11.1418 32.5171 11.364 32.3365 11.9646C32.1594 12.5722 29.9374 9.88837 29.6492 9.09676C29.5138 8.71831 29.6527 7.86768 30.1179 8.02739C30.4408 8.13502 30.3679 8.34681 30.2637 8.48916C30.1318 8.66276 30.2429 8.9683 30.4755 8.9926C30.7082 9.0169 31.0623 8.75998 31.0831 8.31209C31.1213 7.45104 29.4756 6.80872 29.0451 8.13155C28.9583 8.40583 28.7257 8.02392 28.5451 7.88157C28.1458 7.56214 25.6807 4.62485 22.3858 4.58665C21.1255 4.57277 21.7053 4.88525 21.0942 4.83664C20.6637 4.80192 20.3755 4.19085 20.1985 3.97559C20.0943 4.15613 19.7367 4.80192 19.3062 4.83664C18.6986 4.88525 19.2749 4.57277 18.0146 4.58665C14.7197 4.62137 12.2511 7.56214 11.8553 7.88157C11.6782 8.02739 11.4421 8.40931 11.3519 8.13155C10.9248 6.80872 9.27562 7.45104 9.31034 8.31209C9.3277 8.75998 9.69225 9.0169 9.92141 8.9926C10.154 8.9683 10.2686 8.66623 10.1401 8.48916C10.0325 8.34681 9.95613 8.13155 10.279 8.02739C10.7408 7.87115 10.8831 8.71831 10.7477 9.09676C10.463 9.88837 8.24097 12.5722 8.06042 11.9646C7.88335 11.364 7.307 11.1418 6.91467 11.3917C6.41123 11.857 6.83481 12.2632 6.98411 12.0722C7.23756 11.7528 7.51185 11.8257 7.44935 12.3951C7.37991 13.0756 5.0155 13.7909 5.0155 13.7909C5.0155 13.7909 6.17861 14.2388 6.98411 14.9401C7.42158 15.3185 7.78961 15.7595 7.73753 16.2629C7.70281 16.624 7.62295 16.8393 7.41464 16.9782C7.00494 17.2559 6.41123 17.1656 6.37651 16.8323C6.33832 16.4747 6.94939 16.44 6.77232 16.0824C6.37651 15.6866 5.66128 16.065 5.58837 16.8011C5.48074 17.8739 7.99098 17.7663 8.59858 18.4468C10.0881 19.1169 11.1748 20.839 11.1748 22.8354C11.1748 25.4151 9.40061 27.5087 7.21673 27.5087C6.93203 27.401 5.63004 27.0434 5.65781 26.2553C5.73072 24.3596 7.52227 25.1095 7.12646 25.613C6.92161 25.8734 7.05702 26.4011 7.48407 26.0782C8.27916 25.481 7.307 24.8248 7.26881 24.5019C7.23756 24.2311 7.43894 24.0992 7.34172 23.6062C7.16465 22.7104 6.12653 23.068 6.66122 23.4603C6.88689 23.6235 6.69593 24.0714 6.59178 24.1409C6.20986 24.3943 5.35575 24.8109 5.08494 25.5713C4.87314 26.1754 5.15785 27.0782 5.15785 27.2205C5.15785 27.5434 5.08494 28.2933 4.5815 28.1892C4.43568 28.1579 4.27249 27.8628 4.15097 27.901C3.75864 27.8316 3.74822 28.5537 4.43567 28.6544C5.40436 28.7968 5.61962 27.6857 5.8696 27.7934C6.55011 28.085 6.88342 28.0052 7.08827 28.1163C7.1959 28.2204 7.1959 28.4461 7.1959 28.4461C6.32096 29.0988 5.61615 30.1161 5.25853 31.3036C5.1509 31.1265 4.26208 30.873 3.93571 31.1924C3.54685 31.5535 3.6649 32.0014 3.68573 32.1646C3.72045 32.4493 4.33499 32.5187 4.26208 31.9493C4.19264 31.4112 4.90439 31.5917 5.0155 32.1264C5.16132 32.9527 4.93564 33.2826 4.9773 33.5603C5.33839 35.8518 6.97716 37.2858 8.90064 37.2858C9.22007 37.2858 9.52213 37.258 9.81377 37.1886C10.1575 37.1087 10.3519 37.7163 10.6401 38.2197C10.6401 38.2197 9.45616 38.685 9.60198 39.5808C9.74086 40.4765 10.5672 40.9418 11.1783 40.1536C11.4248 39.8307 10.9977 39.7925 10.5325 39.7925C10.1783 39.5426 10.2131 39.112 11.0672 38.935C12.1053 38.7197 13.0392 40.9418 13.3934 41.8723C13.7545 42.8062 15.7196 45.3824 18.4069 44.7748C18.5805 44.7332 20.1985 47.174 20.1985 47.174C20.1985 47.174 21.8095 44.7332 21.99 44.7748C24.6773 45.3859 26.6459 42.8062 27.0036 41.8723C27.3612 40.9418 28.2951 38.7197 29.3333 38.935C30.1839 39.1155 30.2186 39.5426 29.8679 39.7925C29.4027 39.7925 28.9722 39.8307 29.2256 40.1536C29.8332 40.9418 30.6561 40.4765 30.7984 39.5808C30.9408 38.685 29.7603 38.2197 29.7603 38.2197C30.0485 37.7163 30.2394 37.1087 30.5832 37.1886C30.8748 37.258 31.1803 37.2858 31.4998 37.2858C33.4198 37.2858 35.2426 35.8518 35.3467 33.4527C35.3606 33.1715 35.2738 32.609 35.3849 32.1264C35.4891 31.5917 36.2043 31.4147 36.1314 31.9493C36.055 32.5222 36.6696 32.4493 36.7077 32.1646C36.7182 32.0014 36.8397 31.5535 36.4508 31.1924ZM19.7575 7.48576C20.0839 7.02051 20.1881 6.44764 20.261 6.73581C20.3825 7.22883 20.7991 7.45104 20.6221 7.59686C20.3408 7.8156 19.643 7.65936 19.7575 7.48576ZM20.1881 45.9831L19.2576 44.6221L20.1881 43.334L21.1185 44.6221L20.1881 45.9831ZM34.7634 33.3451C34.7634 35.2026 33.2809 36.7094 31.4512 36.7094C30.6422 36.7094 29.8992 36.4143 29.3228 35.9248C28.9131 35.4942 28.6041 34.8103 28.6041 34.1159C28.6041 32.8208 29.5728 31.7723 30.6804 31.7723C30.8262 31.873 31.0033 31.7028 31.2533 32.491C31.5762 32.6333 31.6109 32.3694 31.6109 32.0604C31.6109 31.5605 31.0727 31.3452 30.4304 31.0952C29.9582 30.9112 30.3644 29.8974 29.6423 29.8418C29.1805 29.8071 28.9999 30.0224 29.1076 30.3453C29.177 30.6265 29.4339 30.3696 29.5763 30.4529C30.0415 30.7376 29.3888 31.5535 29.3888 31.5535C28.6458 32.2097 28.1806 33.1368 28.1806 34.1054C28.1806 34.72 28.3715 35.2616 28.6458 35.7894C28.9652 36.1886 29.2534 36.5601 29.5971 36.7789C29.5971 36.7789 29.9304 37.5809 29.0694 38.2961C28.6423 38.6503 28.2118 38.1885 26.7813 40.6953C26.7084 40.8272 26.4619 40.3099 25.9238 40.1224C25.5627 39.9071 24.4864 40.1224 24.4169 41.0529C24.351 41.9105 25.2016 41.4834 25.4203 40.7647C25.6946 40.5842 25.9446 40.9105 26.1356 41.2681C26.396 41.7542 25.8509 42.9139 24.3822 43.8443C23.0559 44.6672 20.695 44.2749 20.7644 42.7021C20.8165 41.5355 22.4136 41.2681 22.1983 42.1986C22.0699 42.7611 23.5593 42.8409 22.8441 41.6223C22.1289 40.4036 20.4832 41.4799 20.195 42.1986C19.9103 41.4834 18.2611 40.4036 17.5459 41.6223C16.8306 42.8409 18.3201 42.7576 18.1882 42.1986C17.9764 41.2681 19.57 41.5355 19.6256 42.7021C19.6985 44.2749 17.3341 44.6672 16.0078 43.8443C14.5357 42.9139 13.994 41.7542 14.251 41.2681C14.4385 40.9105 14.6884 40.5876 14.9662 40.7647C15.1849 41.4834 16.0356 41.9105 15.9696 41.0529C15.8967 40.1224 14.8238 39.9036 14.4662 40.1224C13.9246 40.3099 13.6816 40.8237 13.6087 40.6953C12.1782 38.1885 11.7442 38.6537 11.3171 38.2961C10.4596 37.5809 10.7929 36.7789 10.7929 36.7789C11.1019 36.4351 11.4595 36.2581 11.7789 35.8623C12.0567 35.3345 12.2094 34.72 12.2094 34.1054C12.2094 33.1368 11.7407 32.2097 11.0012 31.5535C11.0012 31.5535 10.3485 30.7376 10.8137 30.4529C10.9526 30.3696 11.206 30.6265 11.279 30.3453C11.3796 30.0259 11.3449 29.9286 10.7408 29.88C9.87974 29.8071 10.4283 30.9112 9.94918 31.0987C9.30339 31.3487 8.76871 31.5639 8.76871 32.0639C8.76871 32.3729 8.80343 32.6368 9.12632 32.4944C9.37978 31.7063 9.55338 31.8799 9.70267 31.7757C10.8068 31.7757 11.7754 32.8243 11.7754 34.1193C11.7754 34.8137 11.4664 35.5012 11.0602 35.9282C10.4839 36.4178 9.74086 36.7129 8.93189 36.7129C7.10216 36.7129 5.61962 35.2061 5.61962 33.3485C5.40436 30.5189 7.12299 28.8003 8.68885 27.9323C10.4526 27.1754 11.706 25.2102 11.706 22.9083C11.706 20.4536 10.4179 18.5579 8.33818 17.6969C7.78267 17.3219 8.05695 17.242 8.23402 16.8358C8.29305 16.6969 8.2861 16.4921 8.30693 16.2629C8.35901 15.5928 8.28957 15.9123 8.23402 15.5789C8.20972 15.4678 8.05348 15.3533 8.0882 15.0095C8.23402 13.6485 9.66795 14.2318 9.77558 14.7596C9.88321 15.2977 9.68878 15.2422 9.55685 15.3672C8.94925 15.1519 9.16104 15.5408 9.19923 15.6553C9.30686 15.9782 9.66448 16.0928 10.095 15.8012C10.4561 15.6935 10.5984 15.1623 10.7026 15.1936C11.3935 15.3915 11.706 14.6207 11.4213 14.586C11.1331 14.5478 10.7755 14.9089 10.529 14.586C9.66795 13.4784 8.24097 13.5409 7.98751 14.0131C7.51879 14.8741 7.12646 14.4054 7.12646 14.4054C7.12646 14.4054 6.48414 13.9436 6.55358 13.9055C7.66462 13.2944 8.16805 12.9472 9.88669 11.2529C10.6401 10.3953 12.449 7.98572 12.9281 7.60033C14.5079 6.34348 17.4764 4.16307 19.1951 5.52062C19.8825 6.06572 19.6291 6.66637 19.3756 6.88511C19.0909 7.16981 18.893 6.18377 18.768 6.23932C18.3722 6.30876 18.9833 6.95455 18.6951 7.23925C18.4278 7.53089 17.9486 7.18022 17.9764 6.88511C18.0493 6.2046 16.473 7.4927 18.3722 8.03086C18.7784 8.14544 18.768 7.88504 19.0527 7.9267C19.3409 7.95795 19.6985 8.31903 20.1985 8.24612C20.7019 8.31903 21.0595 7.96142 21.3442 7.9267C21.6324 7.88851 21.622 8.14544 22.0282 8.03086C23.9239 7.4927 22.3476 6.2046 22.4205 6.88511C22.4518 7.18022 21.9692 7.53089 21.7053 7.23925C21.4171 6.95455 22.0282 6.31223 21.6324 6.23932C21.5039 6.18377 21.313 7.16634 21.0213 6.88511C20.7713 6.66984 20.5144 6.06572 21.1984 5.52062C22.9205 4.1596 25.8925 6.34348 27.4653 7.60033C27.9479 7.98572 29.7568 10.3918 30.5103 11.2529C32.2289 12.9472 32.5518 13.1868 33.8434 13.9055C33.9128 13.9471 33.2358 14.4436 33.2358 14.4436C33.2358 14.4436 32.9094 14.6936 32.4094 14.0131C32.09 13.5791 30.7255 13.4784 29.8645 14.586C29.618 14.9089 29.2569 14.5478 28.9687 14.586C28.6805 14.6207 28.9999 15.3915 29.6839 15.1936C29.7881 15.1658 29.9339 15.6935 30.2915 15.8012C30.722 16.0928 31.0762 15.9782 31.1873 15.6553C31.2255 15.5442 31.4373 15.1519 30.8297 15.3672C30.6977 15.2422 30.5033 15.2977 30.6144 14.7596C30.722 14.2318 32.156 13.652 32.2983 15.0095C32.333 15.3533 32.1768 15.4678 32.156 15.5789C32.097 15.9088 32.031 15.5894 32.0831 16.2629C32.097 16.4921 32.0935 16.6969 32.156 16.8358C32.3296 17.242 32.6073 17.3219 32.0449 17.6969C29.9721 18.5544 28.6805 20.4501 28.6805 22.9083C28.6805 25.2137 29.9374 27.1788 31.6977 27.9323C33.2601 28.7968 34.9822 30.5154 34.7634 33.3451Z" fill="#1D2347"/>
<path d="M26.6737 24.234C26.0002 22.9112 24.8579 21.9911 23.5941 21.63L23.6635 21.3835C24.3475 20.3801 24.6322 19.0503 24.6704 17.8004C24.6704 17.5643 24.6496 17.3352 24.6044 17.1199C24.7537 17.0123 25.2572 17.3005 25.6738 17.9081C26.139 18.5886 26.6772 18.0157 26.2085 17.6581C25.8474 17.3769 25.4933 16.0436 25.4551 15.7936C25.4238 15.5436 25.4238 14.6097 25.4933 14.4673C25.6495 14.1444 25.4933 13.2487 25.0627 14.1062C24.6357 14.9673 24.0246 14.752 24.0246 14.752C23.7017 14.0715 22.8372 12.6931 21.306 12.3147C21.5178 11.7765 22.306 11.0578 23.4483 10.5961C24.0385 10.3565 24.5072 10.1968 24.9898 10.169C25.1704 9.84612 25.2051 9.63086 25.0627 9.63086C24.1704 9.63086 22.8927 10.0406 22.3511 10.294C21.8998 10.5058 21.2956 10.6586 20.6255 10.7176C20.0874 10.7662 19.5805 10.7419 19.1499 10.669C18.4069 10.5336 17.5424 10.3496 16.7925 10.0996C16.0043 9.56142 15.9314 10.3843 16.0634 10.4919C16.539 10.6273 17.0563 10.8426 17.5528 11.1203C18.0216 11.4745 18.3445 11.8772 18.6187 12.2487C17.8757 12.523 17.1709 13.0542 16.8654 13.575C16.5529 13.0681 15.8585 12.6098 15.3238 12.6098C14.0149 12.4675 13.3552 13.3459 13.3552 14.1687C13.3552 14.5645 13.5462 14.9256 13.8552 15.193C13.8552 15.193 14.3239 15.4395 14.6329 15.1895C14.7475 15.0923 14.6433 14.9256 14.6433 14.7972C14.3551 14.4396 14.4628 13.8632 15.0738 13.8632C15.6849 13.8632 16.1849 14.4396 16.1849 15.0819C14.8586 15.7832 13.7823 17.0401 13.7823 18.4323C13.7823 19.9045 14.678 21.2064 16.4696 21.8522V29.0149C16.4696 29.0149 16.5425 29.8031 15.7162 28.7997C15.5078 28.5427 15.2683 28.4143 15.0044 28.0115C14.0357 26.47 13.3101 25.109 13.0705 25.109C12.7476 25.109 12.4594 25.1437 12.8171 25.7165C13.1712 26.2929 13.317 26.9005 13.317 27.4734C13.317 28.0497 13.4351 28.7441 12.2095 29.7267C11.6748 30.1572 12.1747 30.5843 12.6365 30.1572C13.1052 29.7267 13.5358 29.7996 13.6781 29.7996C14.0739 29.7996 15.0044 29.8725 15.8967 30.8377C16.2057 30.9488 16.4001 31.2196 16.4001 31.5703C16.4001 32.0147 16.046 32.3723 15.612 32.3723C15.178 32.3723 14.8239 32.0147 14.8239 31.5703C14.8239 31.3655 14.9141 31.3342 15.0357 31.1919C15.0357 31.1919 14.8933 30.7266 14.3551 31.1224C14.1607 31.2648 13.7128 31.7682 13.8552 32.1224C13.8899 33.0216 15.0634 33.9972 16.7508 33.1292C17.032 33.5771 17.5494 34.1917 18.0841 34.525C18.6292 34.8652 19.1847 34.9242 19.1395 35.077C18.7264 36.3859 17.5424 36.8095 17.5424 36.8095C16.723 36.9449 16.0043 36.9241 15.8932 36.2436C15.3551 35.1326 16.6848 35.4207 16.289 34.6673C15.9661 34.5632 15.5356 34.5979 15.3655 34.6777C14.7926 35.0319 14.4315 35.5874 14.4315 36.2089C14.4315 37.2782 15.5044 38.1428 16.8307 38.1428C17.407 38.1428 17.9382 37.9796 18.3549 37.7053C18.8896 37.3512 19.518 37.0699 19.8409 36.57C20.1985 37.0699 21.3547 37.7331 21.6706 37.931C22.24 38.2886 24.0316 38.5039 22.7435 37.6428C20.6776 36.2644 20.9901 34.8479 20.9901 34.8479C22.3893 34.8131 24.785 32.8792 25.1218 30.4975C27.1529 29.3031 27.8612 26.5533 26.6737 24.234ZM16.4661 20.2725C15.5738 19.8072 15.2474 19.1302 15.2474 18.4462C15.2474 17.7379 15.7578 17.0297 16.4661 16.5123V20.2725ZM19.3652 13.3598V14.3632C18.5042 14.2903 17.8237 14.5437 17.7889 14.5194C17.9521 13.9708 18.5146 13.4153 19.3652 13.3598ZM19.3652 15.561V20.8106C19.3652 20.8106 18.5736 20.8801 18.1778 20.7377C17.9105 20.6405 17.8584 20.4148 17.8584 20.4148V15.8318C18.3271 15.6895 18.834 15.5957 19.3652 15.561ZM19.3617 33.5667C18.4347 33.2785 18.0042 32.4001 17.966 31.8029C18.3514 31.8724 18.8271 32.0529 19.3617 32.0182V33.5667ZM19.3652 30.4072C19.3652 30.6294 18.6569 30.56 18.2195 30.2301C17.9417 30.0218 17.8618 29.692 17.8618 29.692V24.0674H19.3652C19.3652 24.0674 19.3652 29.8308 19.3652 30.4072ZM19.3999 22.8487H17.8966V22.064C18.4694 22.1335 18.7541 22.1717 19.3999 22.1717V22.8487ZM20.9762 13.5368C21.7157 13.7209 22.3025 14.2417 22.4831 14.7555C22.4101 14.7555 21.2644 14.3597 20.9762 14.4326V13.5368ZM20.9727 15.5818C21.4033 15.5818 21.3338 15.7242 21.9449 15.7589C22.2261 15.8665 22.8893 15.9429 23.0525 16.1894C23.2573 16.488 23.2955 17.1095 23.2712 17.8004C23.174 19.5677 22.8789 20.2725 22.3025 21.0224C22.2088 21.2898 21.9136 21.2238 21.622 21.1648C21.3581 21.1127 21.0977 21.0745 20.9762 21.0572L20.9727 15.5818ZM21.0109 33.4868V32.0182C22.0004 31.9626 22.8337 31.7856 23.1983 31.5877C23.1636 32.1224 22.1949 33.098 21.0109 33.4868ZM23.4101 29.9419C22.8372 30.2614 22.3372 30.4766 21.872 30.5148C21.0109 30.4801 20.9762 30.5947 20.9762 30.4419C20.9762 30.0843 20.9762 24.5673 20.9762 24.5673C20.9762 24.5673 23.6982 25.3555 23.8059 28.6122C23.8163 28.9004 23.8788 29.7232 23.4101 29.9419ZM25.0975 28.2268L25.0662 28.1504C25.035 27.4074 24.785 26.5394 24.3163 25.6922C23.5767 24.359 22.3754 23.425 21.6602 23.241C21.7505 23.1508 21.7435 23.1438 21.8616 23.0778C22.6254 22.4529 24.3753 23.248 25.1877 24.7236C25.9932 25.8242 25.8648 27.5359 25.0975 28.2268Z" fill="#1D2347"/>
</svg>
