<svg fill="none" height="50" viewBox="0 0 253 50" width="253" xmlns="http://www.w3.org/2000/svg"><g fill="#1d2347"><path d="m50.8352 17.8772c.1111.7534.316 1.3124.6284 1.6839.5729.6771 1.552 1.0173 2.9408 1.0173.8298 0 1.5069-.0868 2.0242-.2673.9826-.3403 1.4756-.9791 1.4756-1.9096 0-.5416-.2396-.9618-.7187-1.2603-.4792-.2917-1.243-.5486-2.2881-.7708l-1.788-.3924c-1.7603-.3853-2.9651-.8055-3.6213-1.2603-1.1076-.7604-1.6631-1.9443-1.6631-3.5588 0-1.47209.5416-2.69423 1.6284-3.66985 1.0867-.97563 2.6803-1.46171 4.7809-1.46171 1.7603 0 3.2567.4583 4.4962 1.37491 1.2395.92355 1.8922 2.25679 1.9513 4.00315h-3.2811c-.0625-.986-.5034-1.68734-1.3332-2.10051-.5555-.27428-1.236-.40969-2.0589-.40969-.9131 0-1.6388.18054-2.1839.53469-.5451.35761-.8194.85411-.8194 1.49291 0 .5833.2709 1.0208.8055 1.309.3438.1944 1.0729.4201 2.1909.6805l2.8921.677c1.2673.2951 2.2152.6944 2.8436 1.1944.9791.7742 1.4686 1.8922 1.4686 3.3574 0 1.5068-.5798 2.7498-1.7429 3.7428s-2.8054 1.4895-4.9302 1.4895c-2.1665 0-3.8713-.4896-5.1142-1.4687-1.243-.9756-1.8645-2.3227-1.8645-4.031h3.281z"/><path d="m67.6328 15.5652c.5937-.0764 1.0173-.1667 1.2707-.2812.4549-.1945.684-.4965.684-.9062 0-.5-.1736-.8472-.5277-1.0382-.3507-.1909-.868-.2881-1.5451-.2881-.7673 0-1.3054.1875-1.6214.5555-.2291.2743-.3819.6423-.4548 1.111h-3.0623c.0694-1.0624.368-1.9339.8992-2.6179.8472-1.0693 2.295-1.604 4.3504-1.604 1.3402 0 2.5276.2639 3.5692.7951 1.0381.5312 1.5589 1.5311 1.5589 2.9963v5.5829c0 .3889.007.8576.0243 1.4062.0209.4201.0834.7048.191.8576.1007.1527.2535.2743.4618.3715v.4583h-3.4512c-.0972-.2431-.1597-.4687-.2013-.6805-.0348-.2153-.066-.4583-.0868-.7291-.441.4826-.9514.8888-1.5242 1.2256-.691.3958-1.4687.5971-2.3367.5971-1.1075 0-2.0207-.3194-2.7463-.9478-.7187-.6284-1.0833-1.5277-1.0833-2.6838 0-1.5034.5798-2.5901 1.7464-3.2637.6354-.3646 1.5694-.6284 2.8089-.7847zm1.9443 1.4825c-.2014.1285-.4097.2292-.618.309-.2083.0799-.493.1528-.8541.2188l-.7257.1319c-.6805.118-1.1666.2673-1.4617.4409-.493.2917-.743.7465-.743 1.3611 0 .5485.1563.9409.4618 1.1839.3055.2465.677.368 1.1145.368.6944 0 1.3332-.2048 1.9165-.6076.5868-.4062.8923-1.1422.9097-2.2151z"/><path d="m80.0312 6.33615c.1631.00695.3819.02084.6666.03472v2.58316c-.1771 0-.4757-.00695-.8958-.01736-.4166-.01042-.7083.08332-.868.28123-.1562.20137-.2395.41664-.2395.6562v1.0312h2.0762v2.2429h-2.0762v9.8187h-3.1352v-9.8187h-1.7846v-2.2429h1.7359v-.7882c0-1.31931.2188-2.2255.6563-2.72199.4548-.71523 1.5623-1.07284 3.3192-1.07284.2013 0 .3784.00694.5451.01388z"/><path d="m88.7875 10.5026c.0452.0035.1354.0104.2743.0174v3.2567c-.2014-.0174-.3784-.0313-.5347-.0382-.1562-.0035-.2847-.007-.3784-.007-1.2812 0-2.1388.4167-2.5797 1.25-.2465.4687-.3646 1.1908-.3646 2.1665v5.8225h-3.1838v-12.1867h3.0137v2.1249c.4896-.8125.9201-1.368 1.2812-1.6666.5937-.4999 1.3679-.7499 2.3227-.7499.0625.0035.1111.0069.1493.0104z"/><path d="m95.2175 15.5652c.5903-.0764 1.0139-.1667 1.2708-.2812.4548-.1945.6875-.4965.6875-.9062 0-.5-.1771-.8472-.5278-1.0382-.3507-.1909-.8645-.2881-1.5485-.2881-.7604 0-1.302.1875-1.6179.5555-.2292.2743-.3785.6423-.4514 1.111h-3.0658c.0695-1.0624.3681-1.9339.8958-2.6179.8507-1.0693 2.2985-1.604 4.3539-1.604 1.3367 0 2.5241.2639 3.5657.7951 1.0381.5312 1.5592 1.5311 1.5592 2.9963v5.5829c0 .3889.007.8576.021 1.4062.02.4201.086.7048.187.8576.108.1527.26.2743.469.3715v.4583h-3.4479c-.0972-.2431-.1632-.4687-.2014-.6805-.0382-.2153-.066-.4583-.0903-.7291-.4444.4826-.9513.8888-1.5276 1.2256-.6875.3958-1.4652.5971-2.3367.5971-1.1075 0-2.0241-.3194-2.7463-.9478-.7257-.6284-1.0833-1.5277-1.0833-2.6838 0-1.5034.5798-2.5901 1.7395-3.2637.6388-.3646 1.5763-.6284 2.8123-.7847zm1.9409 1.4825c-.2049.1285-.4097.2292-.618.309-.2049.0799-.493.1528-.8576.2188l-.7222.1319c-.677.118-1.1666.2673-1.4582.4409-.4965.2917-.743.7465-.743 1.3611 0 .5485.1527.9409.4583 1.1839.3055.2465.677.368 1.1145.368.6979 0 1.3367-.2048 1.92-.6076.5833-.4062.8854-1.1422.9097-2.2151v-1.1909z"/><path d="m108.585 6.48926h3.586l6.545 11.45754v-11.45754h3.184v16.47804h-3.42l-6.711-11.7006v11.7006h-3.184z"/><path d="m129.149 15.5652c.591-.0764 1.018-.1667 1.271-.2812.455-.1945.684-.4965.684-.9062 0-.5-.177-.8472-.531-1.0382-.347-.1909-.865-.2881-1.545-.2881-.764 0-1.306.1875-1.622.5555-.225.2743-.375.6423-.451 1.111h-3.066c.066-1.0624.368-1.9339.896-2.6179.844-1.0693 2.292-1.604 4.35-1.604 1.341 0 2.528.2639 3.57.7951 1.038.5312 1.559 1.5311 1.559 2.9963v5.5829c0 .3889.007.8576.02 1.4062.021.4201.084.7048.184.8576.105.1527.257.2743.466.3715v.4583h-3.448c-.097-.2431-.163-.4687-.201-.6805-.039-.2153-.066-.4583-.091-.7291-.441.4826-.951.8888-1.527 1.2256-.688.3958-1.469.5971-2.337.5971-1.104 0-2.021-.3194-2.743-.9478-.725-.6284-1.083-1.5277-1.083-2.6838 0-1.5034.58-2.5901 1.739-3.2637.639-.3646 1.577-.6284 2.813-.7847zm1.945 1.4825c-.202.1285-.41.2292-.615.309-.208.0799-.496.1528-.857.2188l-.726.1319c-.681.118-1.167.2673-1.458.4409-.497.2917-.747.7465-.747 1.3611 0 .5485.153.9409.462 1.1839.302.2465.674.368 1.111.368.694 0 1.333-.2048 1.92-.6076.587-.4062.889-1.1422.91-2.2151z"/><path d="m135.271 13.1487v-2.2429h1.687v-3.42338h3.156v3.42338h1.979v2.2429h-1.979v6.4544c0 .4965.066.8125.191.934.128.125.517.184 1.163.184.097 0 .198-.0035.309-.0104.108-.007.212-.0209.316-.0382v2.3887l-1.51.0729c-1.507.0556-2.538-.2083-3.09-.7847-.358-.361-.539-.9304-.539-1.6873v-7.5134z"/><path d="m146.818 9.33986h-3.232v-2.91994h3.232zm-3.232 1.44434h3.232v12.1832h-3.232z"/><path d="m159.547 21.4784c-1.028 1.2673-2.591 1.9026-4.681 1.9026-2.093 0-3.652-.6353-4.68-1.9026-1.028-1.2707-1.541-2.7984-1.541-4.5795 0-1.7603.513-3.2811 1.541-4.5657s2.59-1.927 4.68-1.927 3.653.6424 4.681 1.927c1.027 1.2846 1.545 2.8054 1.545 4.5657 0 1.7811-.518 3.3088-1.545 4.5795zm-2.542-1.7499c.503-.6597.753-1.6006.753-2.8227 0-1.2187-.25-2.1596-.753-2.8192-.5-.6597-1.222-.9896-2.16-.9896-.933 0-1.656.3299-2.166.9896-.503.6562-.757 1.5971-.757 2.8192 0 1.2187.254 2.1596.757 2.8227.507.6666 1.229.993 2.166.993.938.0035 1.66-.3264 2.16-.993z"/><path d="m172.608 11.4851c.799.6631 1.198 1.7568 1.198 3.281v8.2008h-3.281v-7.4057c0-.6388-.087-1.1284-.254-1.4756-.309-.6249-.899-.9374-1.767-.9374-1.069 0-1.802.4583-2.201 1.3714-.208.4826-.313 1.1006-.313 1.854v6.5899h-3.183v-12.152h3.086v1.7812c.41-.625.795-1.0798 1.16-1.3576.653-.4895 1.479-.736 2.482-.736 1.254-.0035 2.278.3263 3.073.986z"/><path d="m181.024 15.5652c.594-.0764 1.017-.1667 1.271-.2812.455-.1945.684-.4965.684-.9062 0-.5-.174-.8472-.528-1.0382-.351-.1909-.868-.2881-1.545-.2881-.767 0-1.305.1875-1.621.5555-.229.2743-.382.6423-.455 1.111h-3.062c.066-1.0624.364-1.9339.895-2.6179.844-1.0693 2.295-1.604 4.351-1.604 1.34 0 2.527.2639 3.569.7951 1.038.5312 1.555 1.5311 1.555 2.9963v5.5829c0 .3889.007.8576.025 1.4062.021.4201.083.7048.187.8576.104.1527.257.2743.462.3715v.4583h-3.448c-.097-.2431-.163-.4687-.201-.6805-.042-.2153-.066-.4583-.09-.7291-.441.4826-.952.8888-1.528 1.2256-.687.3958-1.469.5971-2.337.5971-1.104 0-2.02-.3194-2.746-.9478-.722-.6284-1.087-1.5277-1.087-2.6838 0-1.5034.584-2.5901 1.743-3.2637.636-.3646 1.573-.6284 2.809-.7847zm1.944 1.4825c-.204.1285-.409.2292-.618.309-.208.0799-.493.1528-.854.2188l-.725.1319c-.681.118-1.167.2673-1.462.4409-.493.2917-.743.7465-.743 1.3611 0 .5485.153.9409.458 1.1839.309.2465.677.368 1.115.368.694 0 1.33-.2048 1.916-.6076.587-.4062.889-1.1422.913-2.2151z"/><path d="m191.624 22.9678h-3.184v-16.45022h3.184z"/><path d="m212.515 8.24608c.503.70134.753 1.53809.753 2.51372 0 1.0069-.253 1.8158-.76 2.4234-.285.3472-.705.6562-1.257.9409.84.3056 1.476.7917 1.903 1.4513.427.6667.642 1.4722.642 2.4165 0 .9757-.243 1.8541-.732 2.6283-.313.5173-.702.9479-1.167 1.2985-.524.4028-1.142.6806-1.857.8264-.712.1458-1.49.2222-2.323.2222h-7.406v-16.47804h7.944c2.003.03125 3.42.61801 4.26 1.75682zm-8.919 1.09367v3.64215h3.989c.715 0 1.291-.1389 1.739-.4097.445-.2743.667-.7569.667-1.4513 0-.7708-.295-1.28118-.882-1.52422-.507-.17013-1.153-.25693-1.944-.25693zm0 6.36765v4.4129h3.989c.712 0 1.264-.0973 1.663-.2917.719-.3576 1.076-1.0485 1.076-2.0658 0-.8611-.347-1.4478-1.045-1.7742-.392-.1805-.937-.2708-1.642-.2778h-4.041z"/><path d="m220.764 15.5652c.591-.0764 1.014-.1667 1.271-.2812.459-.1945.684-.4965.684-.9062 0-.5-.177-.8472-.528-1.0382-.347-.1909-.864-.2881-1.545-.2881-.763 0-1.302.1875-1.621.5555-.226.2743-.378.6423-.455 1.111h-3.062c.066-1.0624.364-1.9339.899-2.6179.84-1.0693 2.295-1.604 4.351-1.604 1.34 0 2.527.2639 3.569.7951 1.038.5312 1.559 1.5311 1.559 2.9963v5.5829c0 .3889.007.8576.02 1.4062.021.4201.084.7048.188.8576.104.1527.257.2743.465.3715v.4583h-3.447c-.098-.2431-.167-.4687-.202-.6805-.038-.2153-.066-.4583-.09-.7291-.441.4826-.951.8888-1.528 1.2256-.687.3958-1.468.5971-2.336.5971-1.108 0-2.025-.3194-2.747-.9478s-1.083-1.5277-1.083-2.6838c0-1.5034.58-2.5901 1.739-3.2637.639-.3646 1.577-.6284 2.813-.7847zm1.945 1.4825c-.205.1285-.413.2292-.618.309-.209.0799-.497.1528-.854.2188l-.729.1319c-.681.118-1.167.2673-1.462.4409-.493.2917-.74.7465-.74 1.3611 0 .5485.153.9409.455 1.1839.309.2465.681.368 1.118.368.691 0 1.333-.2048 1.917-.6076.583-.4062.885-1.1422.913-2.2151z"/><path d="m237.933 11.4851c.799.6631 1.198 1.7568 1.198 3.281v8.2008h-3.281v-7.4057c0-.6388-.08-1.1284-.253-1.4756-.309-.6249-.899-.9374-1.767-.9374-1.07 0-1.802.4583-2.202 1.3714-.205.4826-.309 1.1006-.309 1.854v6.5899h-3.184v-12.152h3.087v1.7812c.406-.625.792-1.0798 1.156-1.3576.653-.4895 1.479-.736 2.479-.736 1.257-.0035 2.281.3263 3.076.986z"/><path d="m241.527 6.56543h3.135v8.86397l3.969-4.5726h3.944l-4.33 4.5344 4.496 7.5759h-3.847l-2.923-5.2011-1.312 1.3715v3.8296h-3.136v-16.40167z"/><path d="m114.702 35.1507c0 1.3749-.639 3.1665-2.434 3.1665-1.77 0-2.43-1.7916-2.43-3.1665s.66-3.1525 2.43-3.1525c1.795 0 2.434 1.7776 2.434 3.1525zm1.386 0c0-3.7497-2.271-4.5101-3.82-4.5101-1.545 0-3.815.7604-3.815 4.5101 0 3.7498 2.267 4.524 3.815 4.524 1.549 0 3.82-.7742 3.82-4.524z"/><path d="m118.251 32.1092h-1.143v-1.2395h1.143v-1.4305c0-1.3749 1.18-1.8436 1.357-1.8575.42-.0799.872-.0799 1.368.0139v1.1318c-.854-.0972-1.368 0-1.368.9028v1.2395h1.354v1.2395h-1.354v7.2113h-1.357z"/><path d="m134.465 39.3204-5.962-9.4056v9.4056h-1.506v-11.7423h1.784l5.892 9.5028v-9.5028h1.51v11.7388h-1.718z"/><path d="m139.548 34.4384c.035-.8506.517-1.7603.725-1.9512.452-.6076 1.191-.8021 1.854-.7361.674.066 1.292.368 1.466.7361.211.2222.663 1.1665.611 1.9512zm6.114 1.1909c-.014-1.5589-.031-2.5554-.941-3.7845-.514-.6423-1.462-1.1214-2.51-1.2082-1.049-.0799-2.191.243-3.111 1.2707-.688.7674-1.024 1.9999-1.042 3.2359-.017 1.2361.288 2.4582.851 3.1804.719.9131 1.864 1.3506 2.975 1.3506 1.129 0 2.226-.4167 2.851-1.2534.514-.5937.642-1.1735.753-1.6874h-1.361c-.191.4826-.579 1.7672-2.256 1.7672-.986 0-1.532-.5451-1.9-1.045-.486-.7535-.517-1.2395-.472-1.8332h6.163z"/><path d="m146.145 30.873h1.513l1.656 6.5795 1.639-6.5795h1.684l1.556 6.5586 1.736-6.5586h1.513l-2.496 8.4474h-1.521l-1.711-6.4197-1.632 6.4197h-1.521z"/><path d="m162.765 27.5781 3.396 5.701 3.333-5.701h1.85l-4.427 7.1488v4.59h-1.513v-4.59l-4.493-7.1488z"/><path d="m176.035 35.1507c0 1.3749-.642 3.1665-2.43 3.1665-1.778 0-2.438-1.7916-2.438-3.1665s.66-3.1525 2.438-3.1525c1.791 0 2.43 1.7776 2.43 3.1525zm1.385 0c0-3.7497-2.267-4.5101-3.812-4.5101-1.549 0-3.819.7604-3.819 4.5101 0 3.7498 2.27 4.524 3.819 4.524 1.545 0 3.812-.7742 3.812-4.524z"/><path d="m179.271 30.8698h1.357v1.3402h.035c.496-.9687 1.302-1.5208 1.917-1.5694h.756v1.4201c-.496 0-.92.0659-1.288.1944-.951.434-1.416 1.2187-1.416 2.6838v4.3817h-1.358v-8.4508z"/><path d="m186.045 27.5781v6.8155l3.576-3.524h1.743l-2.948 2.9303 3.43 5.517h-1.659l-2.788-4.5066-1.354 1.3401v3.17h-1.358v-11.7423z"/><path d="m36.9855 21.7415c-.7534-.861-.2534-1.2915.1077-1.9686.6388-1.2186.7881-1.7568 1.8609-3.8678.5729-1.1283.8646-1.9582.7153-2.6838-.5382-1.9339-2.5762-2.6769-3.2915-3.54489-.1319-.15276-.3888-.24304-.4687-.3958-.1319-.25346-.0382-.53816-.0382-.53816.0035-.00347.8021-1.54503.7187-1.79154-.1701-.4965-2.8678-1.96862-5.0864-2.86439-2.6804-.96868-4.1421-1.36101-6.5482-1.96861-2.9755-.75342-4.7253-2.11791-4.7253-2.11791s-1.7569 1.36449-4.7289 2.11791c-2.4095.6076-3.8643.99993-6.55508 1.96861-2.2186.8923-4.9198 2.36789-5.08646 2.86439-.07985.24651.71523 1.7846.7187 1.79154 0 0 .09375.2847-.03819.53816-.07638.15276-.33678.24304-.46524.3958-.71523.86799-2.75676 1.61099-3.294914 3.54489-.149295.7291.138879 1.5555.715224 2.6838 1.07285 2.111 1.21867 2.6492 1.86446 3.8678.35761.6771.85758 1.1111.10763 1.9686-2.36442 2.2916-3.794876 5.6073-3.4025422 9.3466.3263662 2.9026 1.6769622 6.0308 3.6178022 8.1661 1.01729 1.1145 1.79154 2.1492 5.37116 4.583 4.65595 2.5762 8.77365 4.2983 11.17635 6.1628 2.3956-1.8645 6.5134-3.5831 11.1693-6.1628 3.5831-2.4373 4.3574-3.4685 5.3746-4.583 1.9409-2.1318 3.2949-5.2635 3.6178-8.1661.3924-3.7393-1.0415-7.0585-3.406-9.3466zm-2.2915 17.8321c-1.0173 1.1145-2.4338 2.2916-6.0516 4.2254-3.3991 1.7569-5.9823 2.7915-8.4543 4.6213-2.4721-1.8298-4.9754-2.8679-8.3779-4.6213-3.6178-1.9338-5.03437-3.1109-6.05166-4.2254-3.15256-3.3643-4.19068-6.0481-4.40595-9.2736.03472-3.0449 1.07285-5.8017 3.29491-7.9856 1.32283-1.2186.74995-1.4825.31943-2.2915-.64232-1.2186-.53469-1.2117-1.611-3.4754-.48955-1.0243-1.36102-2.4721-1.03813-3.4373.38887-.8576 2.35401-2.1769 2.47205-2.2568.64926-.434 1.10757-.7499 1.57281-1.18046.22915-.37497-.03819-.57635-.03819-.57635s-.83675-1.34366-.71523-1.57281c.64579-1.21866 6.76686-3.222 10.16946-4.01014 1.6353-.37844 4.4406-1.93389 4.4406-1.93389s2.7985 1.55545 4.4407 1.93389c3.3991.78814 9.5236 2.79148 10.1694 4.01014.1181.22915-.7152 1.57281-.7152 1.57281s-.2673.1979-.0382.57635c.4687.43056.927.74646 1.5798 1.18046.118.0799 2.0762 1.3957 2.4685 2.2568.3229.9687-.5485 2.4165-1.0346 3.4373-1.0798 2.2637-.9687 2.2568-1.6145 3.4754-.4305.8125-1.0034 1.0729.3229 2.2915 2.2221 2.1839 3.2602 4.9407 3.2949 7.9856-.2083 3.2255-1.2499 5.9093-4.399 9.2736z"/><path d="m36.4508 31.1924c-.3264-.3194-1.2117-.0659-1.3228.1112-.3542-1.1875-1.0624-2.2048-1.9339-2.8575 0 0-.0035-.2257.1042-.3298.2013-.1111.7846-.0382 1.2533-.25.3577-.1667.4306.9305 1.3958.7881.6874-.1041.684-.8263.2882-.7534-.1216-.0382-.2848.2569-.4306.2882-.4999.1041-.5728-.6458-.5728-.9687 0-.1423.2847-1.0451.0729-1.6492-.2709-.7604-1.125-1.177-1.5069-1.4304-.1041-.073-.2951-.5174-.0694-.6806.5381-.3958-.4965-.7534-.6771.1459-.0972.4895.1007.6249.073.8957-.0382.3229-1.0104.9791-.2153 1.5763.4305.3229.5625-.2048.3576-.4652-.3923-.5035 1.3957-1.2534 1.4687.6423.0312.7916-1.2673 1.1457-1.559 1.2534-2.1838 0-3.9546-2.0936-3.9546-4.6733 0-1.9964 1.0833-3.715 2.5797-4.3886.6076-.6805 3.1144-.5729 3.0068-1.6457-.0764-.7361-.7882-1.111-1.1805-.7187-.1805.3576.4305.3923.3923.7499-.0312.3333-.6249.4201-1.0381.1459-.2083-.1389-.2847-.3542-.3229-.7153-.1423-1.4339 2.7255-2.472 2.7255-2.472s-2.3679-.7153-2.4373-1.3958c-.059-.5694.2152-.6423.4652-.3229.1493.191.5729-.2152.0729-.6805-.3958-.2499-.9686-.0277-1.1492.5729-.1771.6076-2.3991-2.07623-2.6873-2.86784-.1354-.37845.0035-1.22908.4687-1.06937.3229.10763.25.31942.1458.46177-.1319.1736-.0208.47914.2118.50344.2327.0243.5868-.23262.6076-.68051.0382-.86105-1.6075-1.50337-2.038-.18054-.0868.27428-.3194-.10763-.5-.24998-.3993-.31943-2.8644-3.25672-6.1593-3.29492-1.2603-.01388-.6805.2986-1.2916.24999-.4305-.03472-.7187-.64579-.8957-.86105-.1042.18054-.4618.82633-.8923.86105-.6076.04861-.0313-.26387-1.2916-.24999-3.2949.03472-5.7635 2.97549-6.1593 3.29492-.1771.14582-.4132.52774-.5034.24998-.4271-1.32283-2.07628-.68051-2.04156.18054.01736.44789.38191.70481.61107.68051.23259-.0243.34719-.32637.21869-.50344-.1076-.14235-.18397-.35761.1389-.46177.4618-.15624.6041.69092.4687 1.06937-.2847.79161-2.50673 3.47544-2.68728 2.86784-.17707-.6006-.75342-.8228-1.14575-.5729-.50344.4653-.07986.8715.06944.6805.25345-.3194.52774-.2465.46524.3229-.06944.6805-2.43385 1.3958-2.43385 1.3958s1.16311.4479 1.96861 1.1492c.43747.3784.8055.8194.75342 1.3228-.03472.3611-.11458.5764-.32289.7153-.4097.2777-1.00341.1874-1.03813-.1459-.03819-.3576.57288-.3923.39581-.7499-.39581-.3958-1.11104-.0174-1.18395.7187-.10763 1.0728 2.40261.9652 3.01021 1.6457 1.48952.6701 2.57622 2.3922 2.57622 4.3886 0 2.5797-1.77419 4.6733-3.95807 4.6733-.2847-.1077-1.58669-.4653-1.55892-1.2534.07291-1.8957 1.86446-1.1458 1.46865-.6423-.20485.2604-.06944.7881.35761.4652.79509-.5972-.17707-1.2534-.21526-1.5763-.03125-.2708.17013-.4027.07291-.8957-.17707-.8958-1.21519-.5382-.6805-.1459.22567.1632.03471.6111-.06944.6806-.38192.2534-1.23603.67-1.50684 1.4304-.2118.6041.07291 1.5069.07291 1.6492 0 .3229-.07291 1.0728-.57635.9687-.14582-.0313-.30901-.3264-.43053-.2882-.39233-.0694-.40275.6527.2847.7534.96869.1424 1.18395-.9687 1.43393-.861.68051.2916 1.01382.2118 1.21867.3229.10763.1041.10763.3298.10763.3298-.87494.6527-1.57975 1.67-1.93737 2.8575-.10763-.1771-.99645-.4306-1.32282-.1112-.38886.3611-.27081.809-.24998.9722.03472.2847.64926.3541.57635-.2153-.06944-.5381.64231-.3576.75342.1771.14582.8263-.07986 1.1562-.0382 1.4339.36109 2.2915 1.99986 3.7255 3.92334 3.7255.31943 0 .62149-.0278.91313-.0972.34373-.0799.53813.5277.82633 1.0311 0 0-1.18394.4653-1.03812 1.3611.13888.8957.96522 1.361 1.57632.5728.2465-.3229-.1806-.3611-.6458-.3611-.3542-.2499-.3194-.6805.5347-.8575 1.0381-.2153 1.972 2.0068 2.3262 2.9373.3611.9339 2.3262 3.5101 5.0135 2.9025.1736-.0416 1.7916 2.3992 1.7916 2.3992s1.611-2.4408 1.7915-2.3992c2.6873.6111 4.6559-1.9686 5.0136-2.9025.3576-.9305 1.2915-3.1526 2.3297-2.9373.8506.1805.8853.6076.5346.8575-.4652 0-.8957.0382-.6423.3611.6076.7882 1.4305.3229 1.5728-.5728.1424-.8958-1.0381-1.3611-1.0381-1.3611.2882-.5034.4791-1.111.8229-1.0311.2916.0694.5971.0972.9166.0972 1.92 0 3.7428-1.434 3.8469-3.8331.0139-.2812-.0729-.8437.0382-1.3263.1042-.5347.8194-.7117.7465-.1771-.0764.5729.5382.5.5763.2153.0105-.1632.132-.6111-.2569-.9722zm-16.6933-23.70664c.3264-.46525.4306-1.03812.5035-.74995.1215.49302.5381.71523.3611.86105-.2813.21874-.9791.0625-.8646-.1111zm.4306 38.49734-.9305-1.361.9305-1.2881.9304 1.2881zm14.5753-12.638c0 1.8575-1.4825 3.3643-3.3122 3.3643-.809 0-1.552-.2951-2.1284-.7846-.4097-.4306-.7187-1.1145-.7187-1.8089 0-1.2951.9687-2.3436 2.0763-2.3436.1458.1007.3229-.0695.5729.7187.3229.1423.3576-.1216.3576-.4306 0-.4999-.5382-.7152-1.1805-.9652-.4722-.184-.066-1.1978-.7881-1.2534-.4618-.0347-.6424.1806-.5347.5035.0694.2812.3263.0243.4687.1076.4652.2847-.1875 1.1006-.1875 1.1006-.743.6562-1.2082 1.5833-1.2082 2.5519 0 .6146.1909 1.1562.4652 1.684.3194.3992.6076.7707.9513.9895 0 0 .3333.802-.5277 1.5172-.4271.3542-.8576-.1076-2.2881 2.3992-.0729.1319-.3194-.3854-.8575-.5729-.3611-.2153-1.4374 0-1.5069.9305-.0659.8576.7847.4305 1.0034-.2882.2743-.1805.5243.1458.7153.5034.2604.4861-.2847 1.6458-1.7534 2.5762-1.3263.8229-3.6872.4306-3.6178-1.1422.0521-1.1666 1.6492-1.434 1.4339-.5035-.1284.5625 1.361.6423.6458-.5763-.7152-1.2187-2.3609-.1424-2.6491.5763-.2847-.7152-1.9339-1.795-2.6491-.5763-.7153 1.2186.7742 1.1353.6423.5763-.2118-.9305 1.3818-.6631 1.4374.5035.0729 1.5728-2.2915 1.9651-3.6178 1.1422-1.4721-.9304-2.0138-2.0901-1.7568-2.5762.1875-.3576.4374-.6805.7152-.5034.2187.7187 1.0694 1.1458 1.0034.2882-.0729-.9305-1.1458-1.1493-1.5034-.9305-.5416.1875-.7846.7013-.8575.5729-1.4305-2.5068-1.8645-2.0416-2.2916-2.3992-.8575-.7152-.5242-1.5172-.5242-1.5172.309-.3438.6666-.5208.986-.9166.2778-.5278.4305-1.1423.4305-1.7569 0-.9686-.4687-1.8957-1.2082-2.5519 0 0-.6527-.8159-.1875-1.1006.1389-.0833.3923.1736.4653-.1076.1006-.3194.0659-.4167-.5382-.4653-.86106-.0729-.3125 1.0312-.79162 1.2187-.64579.25-1.18047.4652-1.18047.9652 0 .309.03472.5729.35761.4305.25346-.7881.42706-.6145.57635-.7187 1.10413 0 2.07273 1.0486 2.07273 2.3436 0 .6944-.309 1.3819-.7152 1.8089-.5763.4896-1.31934.7847-2.12831.7847-1.82973 0-3.31227-1.5068-3.31227-3.3644-.21526-2.8296 1.50337-4.5482 3.06923-5.4162 1.76375-.7569 3.01715-2.7221 3.01715-5.024 0-2.4547-1.2881-4.3504-3.36782-5.2114-.55551-.375-.28123-.4549-.10416-.8611.05903-.1389.05208-.3437.07291-.5729.05208-.6701-.01736-.3506-.07291-.684-.0243-.1111-.18054-.2256-.14582-.5694.14582-1.361 1.57975-.7777 1.68738-.2499.10763.5381-.0868.4826-.21873.6076-.6076-.2153-.39581.1736-.35762.2881.10763.3229.46525.4375.89577.1459.3611-.1077.5034-.6389.6076-.6076.6909.1979 1.0034-.5729.7187-.6076-.2882-.0382-.6458.3229-.8923 0-.86105-1.1076-2.28803-1.0451-2.54149-.5729-.46872.861-.86105.3923-.86105.3923s-.64232-.4618-.57288-.4999c1.11104-.6111 1.61447-.9583 3.33311-2.6526.75341-.8576 2.56231-3.26718 3.04141-3.65257 1.5798-1.25685 4.5483-3.43726 6.267-2.07971.6874.5451.434 1.14575.1805 1.36449-.2847.2847-.4826-.70134-.6076-.64579-.3958.06944.2153.71523-.0729.99993-.2673.29164-.7465-.05903-.7187-.35414.0729-.68051-1.5034.60759.3958 1.14575.4062.11458.3958-.14582.6805-.10416.2882.03125.6458.39233 1.1458.31942.5034.07291.861-.2847 1.1457-.31942.2882-.03819.2778.21874.684.10416 1.8957-.53816.3194-1.82626.3923-1.14575.0313.29511-.4513.64578-.7152.35414-.2882-.2847.3229-.92702-.0729-.99993-.1285-.05555-.3194.92702-.6111.64579-.25-.21527-.5069-.81939.1771-1.36449 1.7221-1.36102 4.6941.82286 6.2669 2.07971.4826.38539 2.2915 2.79147 3.045 3.65257 1.7186 1.6943 2.0415 1.9339 3.3331 2.6526.0694.0416-.6076.5381-.6076.5381s-.3264.25-.8264-.4305c-.3194-.434-1.6839-.5347-2.5449.5729-.2465.3229-.6076-.0382-.8958 0-.2882.0347.0312.8055.7152.6076.1042-.0278.25.4999.6076.6076.4305.2916.7847.177.8958-.1459.0382-.1111.25-.5034-.3576-.2881-.132-.125-.3264-.0695-.2153-.6076.1076-.5278 1.5416-1.1076 1.6839.2499.0347.3438-.1215.4583-.1423.5694-.059.3299-.125.0105-.0729.684.0139.2292.0104.434.0729.5729.1736.4062.4513.4861-.1111.8611-2.0728.8575-3.3644 2.7532-3.3644 5.2114 0 2.3054 1.2569 4.2705 3.0172 5.024 1.5624.8645 3.2845 2.5831 3.0657 5.4128z"/><path d="m26.6737 24.234c-.6735-1.3228-1.8158-2.2429-3.0796-2.604l.0694-.2465c.684-1.0034.9687-2.3332 1.0069-3.5831 0-.2361-.0208-.4652-.066-.6805.1493-.1076.6528.1806 1.0694.7882.4652.6805 1.0034.1076.5347-.25-.3611-.2812-.7152-1.6145-.7534-1.8645-.0313-.25-.0313-1.1839.0382-1.3263.1562-.3229 0-1.2186-.4306-.3611-.427.8611-1.0381.6458-1.0381.6458-.3229-.6805-1.1874-2.0589-2.7186-2.4373.2118-.5382 1-1.2569 2.1423-1.7186.5902-.2396 1.0589-.3993 1.5415-.4271.1806-.32288.2153-.53814.0729-.53814-.8923 0-2.17.40974-2.7116.66314-.4513.2118-1.0555.3646-1.7256.4236-.5381.0486-1.045.0243-1.4756-.0486-.743-.1354-1.6075-.3194-2.3574-.5694-.7882-.53818-.8611.2847-.7291.3923.4756.1354.9929.3507 1.4894.6284.4688.3542.7917.7569 1.0659 1.1284-.743.2743-1.4478.8055-1.7533 1.3263-.3125-.5069-1.0069-.9652-1.5416-.9652-1.3089-.1423-1.9686.7361-1.9686 1.5589 0 .3958.191.7569.5 1.0243 0 0 .4687.2465.7777-.0035.1146-.0972.0104-.2639.0104-.3923-.2882-.3576-.1805-.934.4305-.934.6111 0 1.1111.5764 1.1111 1.2187-1.3263.7013-2.4026 1.9582-2.4026 3.3504 0 1.4722.8957 2.7741 2.6873 3.4199v7.1627s.0729.7882-.7534-.2152c-.2084-.257-.4479-.3854-.7118-.7882-.9687-1.5415-1.6943-2.9025-1.9339-2.9025-.3229 0-.6111.0347-.2534.6075.3541.5764.4999 1.184.4999 1.7569 0 .5763.1181 1.2707-1.1075 2.2533-.5347.4305-.0348.8576.427.4305.4687-.4305.8993-.3576 1.0416-.3576.3958 0 1.3263.0729 2.2186 1.0381.309.1111.5034.3819.5034.7326 0 .4444-.3541.802-.7881.802s-.7881-.3576-.7881-.802c0-.2048.0902-.2361.2118-.3784 0 0-.1424-.4653-.6806-.0695-.1944.1424-.6423.6458-.4999 1 .0347.8992 1.2082 1.8748 2.8956 1.0068.2812.4479.7986 1.0625 1.3333 1.3958.5451.3402 1.1006.3992 1.0554.552-.4131 1.3089-1.5971 1.7325-1.5971 1.7325-.8194.1354-1.5381.1146-1.6492-.5659-.5381-1.111.7916-.8229.3958-1.5763-.3229-.1041-.7534-.0694-.9235.0104-.5729.3542-.934.9097-.934 1.5312 0 1.0693 1.0729 1.9339 2.3992 1.9339.5763 0 1.1075-.1632 1.5242-.4375.5347-.3541 1.1631-.6354 1.486-1.1353.3576.4999 1.5138 1.1631 1.8297 1.361.5694.3576 2.361.5729 1.0729-.2882-2.0659-1.3784-1.7534-2.7949-1.7534-2.7949 1.3992-.0348 3.7949-1.9687 4.1317-4.3504 2.0311-1.1944 2.7394-3.9442 1.5519-6.2635zm-10.2076-3.9615c-.8923-.4653-1.2187-1.1423-1.2187-1.8263 0-.7083.5104-1.4165 1.2187-1.9339zm2.8991-6.9127v1.0034c-.861-.0729-1.5415.1805-1.5763.1562.1632-.5486.7257-1.1041 1.5763-1.1596zm0 2.2012v5.2496s-.7916.0695-1.1874-.0729c-.2673-.0972-.3194-.3229-.3194-.3229v-4.583c.4687-.1423.9756-.2361 1.5068-.2708zm-.0035 18.0057c-.927-.2882-1.3575-1.1666-1.3957-1.7638.3854.0695.8611.25 1.3957.2153zm.0035-3.1595c0 .2222-.7083.1528-1.1457-.1771-.2778-.2083-.3577-.5381-.3577-.5381v-5.6246h1.5034zm.0347-7.5585h-1.5033v-.7847c.5728.0695.8575.1077 1.5033.1077zm1.5763-9.3119c.7395.1841 1.3263.7049 1.5069 1.2187-.073 0-1.2187-.3958-1.5069-.3229zm-.0035 2.045c.4306 0 .3611.1424.9722.1771.2812.1076.9444.184 1.1076.4305.2048.2986.243.9201.2187 1.611-.0972 1.7673-.3923 2.4721-.9687 3.222-.0937.2674-.3889.2014-.6805.1424-.2639-.0521-.5243-.0903-.6458-.1076zm.0382 17.905v-1.4686c.9895-.0556 1.8228-.2326 2.1874-.4305-.0347.5347-1.0034 1.5103-2.1874 1.8991zm2.3992-3.5449c-.5729.3195-1.0729.5347-1.5381.5729-.8611-.0347-.8958.0799-.8958-.0729 0-.3576 0-5.8746 0-5.8746s2.722.7882 2.8297 4.0449c.0104.2882.0729 1.111-.3958 1.3297zm1.6874-1.7151-.0313-.0764c-.0312-.743-.2812-1.611-.7499-2.4582-.7396-1.3332-1.9409-2.2672-2.6561-2.4512.0903-.0902.0833-.0972.2014-.1632.7638-.6249 2.5137.1702 3.3261 1.6458.8055 1.1006.6771 2.8123-.0902 3.5032z"/></g></svg>