<svg width="30" height="30" viewBox="0 0 30 30" fill="none" xmlns="http://www.w3.org/2000/svg">
<path d="M10.36 25.32C19.79 25.32 24.95 17.5 24.95 10.73C24.95 10.51 24.95 10.29 24.94 10.07C25.94 9.35 26.81 8.44 27.5 7.41C26.58 7.82 25.59 8.09 24.55 8.22C25.61 7.59 26.42 6.58 26.81 5.38C25.82 5.97 24.72 6.39 23.55 6.62C22.62 5.62 21.28 5 19.81 5C16.98 5 14.68 7.3 14.68 10.13C14.68 10.53 14.73 10.92 14.81 11.3C10.55 11.08 6.77 9.04 4.24 5.94C3.8 6.7 3.55 7.58 3.55 8.52C3.55 10.3 4.46 11.87 5.83 12.79C4.99 12.76 4.2 12.53 3.5 12.15C3.5 12.17 3.5 12.19 3.5 12.22C3.5 14.7 5.27 16.78 7.61 17.25C7.18 17.37 6.73 17.43 6.26 17.43C5.93 17.43 5.61 17.4 5.3 17.34C5.95 19.38 7.85 20.86 10.09 20.9C8.33 22.28 6.12 23.1 3.72 23.1C3.31 23.1 2.9 23.08 2.5 23.03C4.77 24.47 7.47 25.32 10.36 25.32Z" fill="white"/>
</svg>
