<svg fill="none" height="30" viewBox="0 0 30 30" width="30" xmlns="http://www.w3.org/2000/svg"><path clip-rule="evenodd" d="m12.3844 6.31944c3.5947-.17082 7.3528.00732 10.8108.17083 2.4452.11714 3.5507 1.13965 3.929 3.36769.1586.93714.2196 2.36714.2684 3.39214.1147 2.4501.083 5.0027-.2684 6.9794-.3929 2.2134-1.4545 3.2481-3.9534 3.3677-4.5635.2172-9.4003.2782-14.25169.0976-2.42572-.0903-4.67817-.0952-5.56402-1.7327-.74675-1.3836-.85412-3.5849-.85412-5.7348 0-2.0987-.03173-4.5513.26844-6.32053.327-1.91812 1.16649-3.13586 3.24567-3.34329 1.98157-.19767 4.08032-.13422 6.36932-.24404zm0 11.93336c2.2061-1.0811 4.4683-2.3159 6.711-3.4409-2.189-1.2275-4.4829-2.3501-6.711-3.5385z" fill="#fff" fill-rule="evenodd"/></svg>